<?xml version="1.0" encoding="utf-8"?>
<!-- Generator: Adobe Illustrator 24.0.0, SVG Export Plug-In . SVG Version: 6.00 Build 0)  -->
<svg version="1.0" id="Layer_1" xmlns="http://www.w3.org/2000/svg" xmlns:xlink="http://www.w3.org/1999/xlink" x="0px" y="0px"
	 viewBox="0 0 283.46 283.46" style="enable-background:new 0 0 283.46 283.46;" xml:space="preserve">
<style type="text/css">
	.st0{fill:#020203;}
</style>
<g>
	<path class="st0" d="M260.77,168.71H243.5v79.73c0,14.12-11.36,25.55-25.55,25.55H66.25c-14.12,0-25.55-11.36-25.55-25.55v-79.73
		H23.43c-19.26,0-32.23-23.56-14.96-41.28l102.2-104.06c8.67-9.05,20.03-13.35,31.46-13.35s22.79,4.3,31.84,13.35l23.18,23.56v-20.8
		c0-9.05,7.45-16.11,16.5-16.11h13.74c8.67,0,16.11,7.06,16.11,16.11v68.37l32.23,33C292.93,145.15,280.41,168.71,260.77,168.71z"/>
</g>
</svg>
