<?xml version="1.0" encoding="utf-8"?>
<!-- Generator: Adobe Illustrator 24.0.0, SVG Export Plug-In . SVG Version: 6.00 Build 0)  -->
<svg version="1.0" id="Layer_1" xmlns="http://www.w3.org/2000/svg" xmlns:xlink="http://www.w3.org/1999/xlink" x="0px" y="0px"
	 viewBox="0 0 283.46 283.46" style="enable-background:new 0 0 283.46 283.46;" xml:space="preserve">
<style type="text/css">
	.st0{fill:#020203;}
</style>
<g id="XMLID_520_">
	<path id="XMLID_521_" class="st0" d="M6.4,190.55l25.77,44.63c3.07,5.32,9.47,7.73,15.29,5.76l37.92-12.83
		c3.35,2.21,6.83,4.22,10.4,6.02l7.85,39.24c1.2,6.02,6.49,10.36,12.63,10.36h51.54c6.14,0,11.43-4.34,12.63-10.36l7.85-39.24
		c3.58-1.8,7.05-3.81,10.4-6.02l37.92,12.83c5.82,1.97,12.22-0.44,15.29-5.76l25.77-44.63c3.07-5.32,1.96-12.07-2.65-16.12
		L244.94,148c0.12-2,0.17-4.01,0.17-6c0-1.99-0.06-4-0.17-6l30.07-26.43c4.61-4.05,5.72-10.8,2.65-16.12l-25.77-44.63
		c-3.07-5.32-9.47-7.73-15.29-5.76l-37.92,12.83c-3.35-2.21-6.82-4.22-10.4-6.02l-7.85-39.24c-1.2-6.02-6.49-10.36-12.63-10.36
		h-51.54c-6.14,0-11.43,4.34-12.63,10.36l-7.85,39.24c-3.58,1.8-7.05,3.81-10.4,6.02L47.46,43.05c-5.82-1.97-12.22,0.44-15.29,5.76
		L6.4,93.45c-3.07,5.32-1.96,12.07,2.65,16.12L39.13,136c-0.12,2-0.17,4-0.17,6s0.06,4,0.17,6L9.06,174.43
		C4.44,178.48,3.33,185.23,6.4,190.55z M142.03,90.46c28.42,0,51.54,23.12,51.54,51.54s-23.12,51.54-51.54,51.54
		S90.49,170.42,90.49,142S113.61,90.46,142.03,90.46z"/>
</g>
</svg>
