<?xml version="1.0" encoding="utf-8"?>
<!-- Generator: Adobe Illustrator 24.0.0, SVG Export Plug-In . SVG Version: 6.00 Build 0)  -->
<svg version="1.0" id="Layer_1" xmlns="http://www.w3.org/2000/svg" xmlns:xlink="http://www.w3.org/1999/xlink" x="0px" y="0px"
	 viewBox="0 0 283.46 283.46" style="enable-background:new 0 0 283.46 283.46;" xml:space="preserve">
<style type="text/css">
	.st0{fill:#020203;}
</style>
<g id="XMLID_2_">
	<path id="XMLID_4_" class="st0" d="M44.29,154.88h149.28c7.12,0,12.88-5.77,12.88-12.88s-5.77-12.88-12.88-12.88H44.29l16.66-16.66
		c5.03-5.03,5.03-13.19,0-18.22c-5.03-5.03-13.19-5.03-18.22,0L4.08,132.89c-0.3,0.3-0.58,0.61-0.85,0.94
		c-0.07,0.08-0.12,0.17-0.18,0.25c-0.2,0.25-0.39,0.5-0.57,0.77c-0.05,0.08-0.09,0.16-0.14,0.24c-0.18,0.28-0.35,0.56-0.51,0.85
		c-0.03,0.06-0.05,0.12-0.09,0.18c-0.16,0.32-0.32,0.63-0.46,0.96c-0.02,0.04-0.03,0.08-0.05,0.12c-0.14,0.35-0.27,0.7-0.38,1.06
		c-0.01,0.05-0.02,0.09-0.04,0.14c-0.1,0.35-0.2,0.71-0.27,1.08c-0.02,0.11-0.03,0.22-0.05,0.33c-0.05,0.3-0.11,0.61-0.14,0.92
		c-0.04,0.43-0.07,0.85-0.07,1.29c0,0.43,0.02,0.86,0.07,1.29c0.03,0.31,0.09,0.62,0.14,0.93c0.02,0.11,0.03,0.22,0.05,0.32
		c0.07,0.37,0.17,0.73,0.27,1.09c0.01,0.04,0.02,0.09,0.03,0.13c0.11,0.36,0.24,0.72,0.38,1.07c0.02,0.04,0.03,0.08,0.04,0.12
		c0.14,0.33,0.29,0.65,0.46,0.97c0.03,0.06,0.05,0.11,0.08,0.17c0.16,0.29,0.33,0.57,0.51,0.85c0.05,0.08,0.09,0.16,0.14,0.23
		c0.18,0.27,0.37,0.52,0.57,0.77c0.06,0.08,0.12,0.17,0.18,0.24c0.27,0.33,0.55,0.64,0.85,0.94l38.65,38.65
		c2.52,2.52,5.81,3.77,9.11,3.77s6.6-1.26,9.11-3.77c5.03-5.03,5.03-13.19,0-18.22L44.29,154.88z"/>
	<path id="XMLID_5_" class="st0" d="M178.37,36.6c-35.17,0-67.89,17.45-87.53,46.67c-3.97,5.91-2.4,13.91,3.51,17.88
		c5.91,3.97,13.91,2.4,17.88-3.51c14.84-22.09,39.57-35.28,66.14-35.28C222.27,62.37,258,98.09,258,142s-35.72,79.63-79.63,79.63
		c-26.5,0-51.18-13.13-66.04-35.12c-3.98-5.9-11.99-7.45-17.89-3.46c-5.9,3.98-7.45,11.99-3.46,17.89
		c19.65,29.09,52.32,46.46,87.39,46.46c58.12,0,105.4-47.28,105.4-105.4S236.48,36.6,178.37,36.6z"/>
</g>
</svg>
