<?xml version="1.0" encoding="utf-8"?>
<!-- Generator: Adobe Illustrator 24.0.0, SVG Export Plug-In . SVG Version: 6.00 Build 0)  -->
<svg version="1.0" id="Layer_1" xmlns="http://www.w3.org/2000/svg" xmlns:xlink="http://www.w3.org/1999/xlink" x="0px" y="0px"
	 viewBox="0 0 283.46 283.46" style="enable-background:new 0 0 283.46 283.46;" xml:space="preserve">
<style type="text/css">
	.st0{fill:#020203;}
</style>
<g>
	<g>
		<path class="st0" d="M35.18,18.54C15.95,18.54,0.3,34.18,0.3,53.42S15.95,88.3,35.18,88.3s34.88-15.65,34.88-34.88
			S54.41,18.54,35.18,18.54z"/>
	</g>
</g>
<g>
	<g>
		<path class="st0" d="M35.18,107.12C15.95,107.12,0.3,122.77,0.3,142s15.65,34.88,34.88,34.88S70.06,161.23,70.06,142
			S54.41,107.12,35.18,107.12z"/>
	</g>
</g>
<g>
	<g>
		<path class="st0" d="M35.18,195.7c-19.23,0-34.88,15.65-34.88,34.88s15.65,34.88,34.88,34.88s34.88-15.65,34.88-34.88
			S54.41,195.7,35.18,195.7z"/>
	</g>
</g>
<g>
	<g>
		<path class="st0" d="M257.74,27.4H114.9c-14.35,0-26.02,11.67-26.02,26.02s11.67,26.02,26.02,26.02h142.84
			c14.35,0,26.02-11.67,26.02-26.02S272.09,27.4,257.74,27.4z"/>
	</g>
</g>
<g>
	<g>
		<path class="st0" d="M257.74,115.98H114.9c-14.35,0-26.02,11.67-26.02,26.02s11.67,26.02,26.02,26.02h142.84
			c14.35,0,26.02-11.67,26.02-26.02S272.09,115.98,257.74,115.98z"/>
	</g>
</g>
<g>
	<g>
		<path class="st0" d="M257.74,204.56H114.9c-14.35,0-26.02,11.67-26.02,26.02s11.67,26.02,26.02,26.02h142.84
			c14.35,0,26.02-11.67,26.02-26.02S272.09,204.56,257.74,204.56z"/>
	</g>
</g>
</svg>
