<?xml version="1.0" encoding="utf-8"?>
<!-- Generator: Adobe Illustrator 24.0.0, SVG Export Plug-In . SVG Version: 6.00 Build 0)  -->
<svg version="1.0" id="Layer_1" xmlns="http://www.w3.org/2000/svg" xmlns:xlink="http://www.w3.org/1999/xlink" x="0px" y="0px"
	 viewBox="0 0 283.46 283.46" style="enable-background:new 0 0 283.46 283.46;" xml:space="preserve">
<g>
	<path class="st0" d="M142.03,0.27C63.76,0.27,0.3,63.72,0.3,142s63.45,141.73,141.73,141.73c78.28,0,141.73-63.46,141.73-141.73
		S220.31,0.27,142.03,0.27z M153.86,237.05c-4.44,4.39-10.63,6.61-18.37,6.61c-7.92,0-14.19-2.17-18.62-6.46
		c-4.46-4.31-6.72-10.4-6.72-18.08c0-7.94,2.22-14.1,6.59-18.28c4.36-4.15,10.66-6.27,18.75-6.27c7.83,0,14.02,2.15,18.42,6.4
		c4.41,4.27,6.65,10.37,6.65,18.14C160.55,226.62,158.3,232.66,153.86,237.05z M197.67,116.5c-4.53,7.24-13.17,15.44-25.67,24.37
		c-8.13,6.01-13.35,10.63-15.45,13.67c-1.98,2.87-2.98,6.77-2.98,11.58v5.71c0,2.39-1.94,4.33-4.33,4.33H118.7
		c-2.39,0-4.33-1.94-4.33-4.33v-7.56c0-8.77,1.91-16.53,5.69-23.08c3.74-6.47,10.57-13.38,20.32-20.53
		c9.04-6.46,15.03-11.71,17.84-15.64c2.66-3.74,4.02-7.98,4.02-12.6c0-5.02-1.77-8.72-5.43-11.31c-3.83-2.71-9.36-4.09-16.44-4.09
		c-12.27,0-26.46,3.94-42.18,11.71c-2.13,1.06-4.73,0.18-5.79-1.95L79.94,61.79c-1.04-2.09-0.24-4.63,1.82-5.73
		c19.29-10.42,39.99-15.71,61.51-15.71c18.52,0,33.5,4.55,44.52,13.53c11.15,9.09,16.8,21.35,16.8,36.46
		C204.59,100.35,202.26,109.16,197.67,116.5z"/>
</g>
</svg>
