<?xml version="1.0" encoding="utf-8"?>
<!-- Generator: Adobe Illustrator 24.0.0, SVG Export Plug-In . SVG Version: 6.00 Build 0)  -->
<svg version="1.0" id="Layer_1" xmlns="http://www.w3.org/2000/svg" xmlns:xlink="http://www.w3.org/1999/xlink" x="0px" y="0px"
	 viewBox="0 0 100 100" style="enable-background:new 0 0 100 100;" xml:space="preserve">
<style type="text/css">
	.st0{fill:#020203;}
</style>
<g>
	<g>
		<path class="st0" d="M93.99,43.63c-0.41-0.07-0.82-0.1-1.24-0.09H22.2l1.54-0.72c1.5-0.71,2.87-1.68,4.04-2.86l19.78-19.78
			c2.61-2.49,3.04-6.49,1.04-9.48c-2.33-3.19-6.81-3.88-10-1.55c-0.26,0.19-0.5,0.39-0.73,0.62L2.1,45.54
			c-2.8,2.79-2.8,7.32-0.01,10.12c0,0,0,0,0.01,0.01l35.77,35.77c2.8,2.79,7.33,2.78,10.12-0.01c0.22-0.22,0.42-0.45,0.61-0.7
			c2.01-2.99,1.57-6.99-1.04-9.48L27.82,61.42c-1.05-1.05-2.26-1.93-3.58-2.61l-2.15-0.97h70.26c3.66,0.14,6.86-2.42,7.55-6.01
			C100.54,47.93,97.89,44.26,93.99,43.63z"/>
	</g>
</g>
</svg>
