<?xml version="1.0" encoding="utf-8"?>
<!-- Generator: Adobe Illustrator 24.0.0, SVG Export Plug-In . SVG Version: 6.00 Build 0)  -->
<svg version="1.0" id="Layer_1" xmlns="http://www.w3.org/2000/svg" xmlns:xlink="http://www.w3.org/1999/xlink" x="0px" y="0px"
	 viewBox="0 0 100 100" style="enable-background:new 0 0 100 100;" xml:space="preserve">
<style type="text/css">
	.st0{fill:#020203;}
</style>
<path class="st0" d="M87.53,12.58h-4.17V4.25c0-2.3-1.87-4.17-4.17-4.17h-4.17c-2.3,0-4.17,1.87-4.17,4.17v8.33H29.19V4.25
	c0-2.3-1.87-4.17-4.17-4.17h-4.17c-2.3,0-4.17,1.87-4.17,4.17v8.33h-4.17c-6.89,0-12.5,5.61-12.5,12.5v62.5
	c0,6.89,5.61,12.5,12.5,12.5h75c6.89,0,12.5-5.61,12.5-12.5v-62.5C100.03,18.19,94.42,12.58,87.53,12.58z M91.69,87.58
	c0,2.3-1.87,4.17-4.17,4.17h-75c-2.3,0-4.17-1.87-4.17-4.17V41.92h83.33V87.58z"/>
</svg>
