<?xml version="1.0" encoding="utf-8"?>
<!-- Generator: Adobe Illustrator 24.0.0, SVG Export Plug-In . SVG Version: 6.00 Build 0)  -->
<svg version="1.0" id="Layer_1" xmlns="http://www.w3.org/2000/svg" xmlns:xlink="http://www.w3.org/1999/xlink" x="0px" y="0px"
	 viewBox="0 0 100 100" style="enable-background:new 0 0 100 100;" xml:space="preserve">
<path d="M49.93,100.1c-12.74,0-25.49,0-38.23,0c-2.03,0-4.01-0.15-5.85-1.16c-3.8-2.1-5.8-5.3-5.81-9.63
	C0.03,63.19,0.06,37.08,0.03,10.97C0.02,4.74,5.12,0.15,10.22,0.18c0.59,0,1.17-0.04,1.76-0.04c19.11,0,38.23,0.04,57.34-0.04
	c3.91-0.02,7.04,1.21,9.78,4.04c5.7,5.9,11.54,11.66,17.38,17.42c2.41,2.38,3.56,5.14,3.55,8.53c-0.04,19.74-0.01,39.48-0.01,59.22
	c0,5.26-3.33,9.45-8.47,10.56c-1.06,0.23-2.18,0.22-3.28,0.23C75.49,100.1,62.71,100.1,49.93,100.1z M42.91,42.97
	c8.24,0,16.47,0,24.71,0c3.08,0,3.85-0.76,3.85-3.78c0-6.81,0-13.62,0-20.43c0-2.78-1.61-4.4-4.4-4.4c-16.33,0-32.65,0-48.98,0
	c-0.44,0-0.88,0.01-1.31,0.06c-1.51,0.18-2.45,1.2-2.46,2.72c-0.01,7.69-0.01,15.38,0,23.06c0,1.49,0.9,2.49,2.36,2.69
	c0.5,0.07,1.02,0.08,1.53,0.08C26.44,42.98,34.67,42.97,42.91,42.97z M50.03,85.82c8.05,0.02,14.29-6.18,14.33-14.21
	c0.03-8.1-6.18-14.33-14.3-14.35c-8.1-0.02-14.27,6.11-14.29,14.21C35.74,79.64,41.86,85.8,50.03,85.82z"/>
</svg>
