<?xml version="1.0" encoding="utf-8"?>
<!-- Generator: Adobe Illustrator 24.0.0, SVG Export Plug-In . SVG Version: 6.00 Build 0)  -->
<svg version="1.0" id="Layer_1" xmlns="http://www.w3.org/2000/svg" xmlns:xlink="http://www.w3.org/1999/xlink" x="0px" y="0px"
	 viewBox="0 0 100 100" style="enable-background:new 0 0 100 100;" xml:space="preserve">
<g>
	<path d="M50.03,0.08c-27.57,0-50,22.43-50,50c0,27.57,22.43,50,50,50c27.57,0,50-22.43,50-50C100.03,22.51,77.6,0.08,50.03,0.08z
		 M97.03,48.68c-16.77,0.7-22.55-4.71-31.95-13.52c-3.14-2.95-6.67-6.25-11.1-9.8c5.2-3.91,10.28-9.58,14.62-18.48
		C84.91,13.92,96.47,29.94,97.03,48.68z M50.03,3.05c5.54,0,10.86,0.97,15.81,2.74C57.51,22.7,46.2,27.17,37.07,30.78
		c-6.33,2.5-11.8,4.66-15.04,10.05c-2.83,4.71-4.22,8.7-5.46,12.22c-2.02,5.76-3.51,10.03-10.26,14.36
		c-2.14-5.37-3.32-11.21-3.32-17.33C2.99,24.15,24.09,3.05,50.03,3.05z M50.03,97.12c-18.76,0-34.98-11.04-42.52-26.96
		c7.95-4.99,9.78-10.17,11.87-16.13c1.19-3.39,2.53-7.22,5.2-11.68c2.72-4.54,7.51-6.43,13.58-8.82c4.15-1.64,8.72-3.45,13.29-6.41
		c4.66,3.69,8.35,7.14,11.61,10.2c9.08,8.52,15.33,14.38,31.16,14.38c0.9,0,1.84-0.03,2.8-0.06C96.2,76.86,75.44,97.12,50.03,97.12z
		"/>
	<path d="M35.71,52.67c3.29,0,5.42,0.56,6.04,0.93c0.2,0.58,0.75,1,1.4,1c0.82,0,1.48-0.66,1.48-1.48c0-3.17-6.83-3.41-8.92-3.41
		s-8.93,0.25-8.93,3.41c0,0.82,0.66,1.48,1.48,1.48c0.65,0,1.2-0.42,1.4-1C30.28,53.23,32.42,52.67,35.71,52.67z"/>
	<path d="M65.34,49.7c-2.09,0-8.92,0.25-8.92,3.41c0,0.82,0.66,1.48,1.48,1.48c0.65,0,1.2-0.42,1.4-1c0.62-0.36,2.76-0.93,6.04-0.93
		c3.29,0,5.42,0.56,6.04,0.93c0.2,0.58,0.75,1,1.4,1c0.82,0,1.48-0.66,1.48-1.48C74.27,49.95,67.43,49.7,65.34,49.7z"/>
	<path d="M49.02,77.02c0.28,0.25,0.64,0.39,1,0.39c0.14,0,0.28-0.02,0.41-0.06l6.63-1.93c0.72-0.21,1.17-0.93,1.05-1.67l-2.76-16.26
		c-0.14-0.81-0.9-1.35-1.71-1.21c-0.81,0.14-1.35,0.9-1.21,1.71l2.54,14.96l-4.56,1.33l-2.68-2.47c-0.6-0.55-1.54-0.51-2.09,0.09
		c-0.55,0.6-0.52,1.54,0.09,2.09L49.02,77.02z"/>
	<path d="M68.82,81.14c-0.06,0.06-5.76,5.88-17.12,5.88c-11.46,0-19.71-5.99-19.79-6.05c-0.66-0.49-1.58-0.35-2.07,0.31
		c-0.49,0.66-0.35,1.58,0.31,2.07c0.37,0.27,9.08,6.63,21.56,6.63c12.62,0,19-6.52,19.26-6.8c0.57-0.59,0.55-1.53-0.05-2.1
		C70.32,80.53,69.39,80.55,68.82,81.14z"/>
</g>
</svg>
