<?xml version="1.0" encoding="utf-8"?>
<!-- Generator: Adobe Illustrator 24.0.0, SVG Export Plug-In . SVG Version: 6.00 Build 0)  -->
<svg version="1.0" id="Layer_1" xmlns="http://www.w3.org/2000/svg" xmlns:xlink="http://www.w3.org/1999/xlink" x="0px" y="0px"
	 viewBox="0 0 100 100" style="enable-background:new 0 0 100 100;" xml:space="preserve">
<g>
	<path d="M68.81,50.98H33.06c-0.75,0-1.35,0.61-1.35,1.35s0.61,1.35,1.35,1.35h35.75c0.75,0,1.35-0.61,1.35-1.35
		S69.56,50.98,68.81,50.98z"/>
	<path d="M68.81,60.14H33.06c-0.75,0-1.35,0.61-1.35,1.35s0.61,1.35,1.35,1.35h35.75c0.75,0,1.35-0.61,1.35-1.35
		S69.56,60.14,68.81,60.14z"/>
	<path d="M68.81,69.31H33.06c-0.75,0-1.35,0.61-1.35,1.35c0,0.75,0.61,1.35,1.35,1.35h35.75c0.75,0,1.35-0.61,1.35-1.35
		C70.17,69.91,69.56,69.31,68.81,69.31z"/>
	<path d="M57.55,78.47H33.06c-0.75,0-1.35,0.61-1.35,1.35c0,0.75,0.61,1.35,1.35,1.35h24.49c0.75,0,1.35-0.61,1.35-1.35
		C58.91,79.08,58.3,78.47,57.55,78.47z"/>
	<path d="M95.74,54.02c0-7.61-1.92-15.13-5.54-21.79v-3.8c0-0.1-0.01-0.2-0.03-0.3c0-0.02-0.01-0.03-0.01-0.05
		c-0.03-0.1-0.07-0.2-0.12-0.29c-0.01-0.03-0.03-0.05-0.05-0.08c-0.06-0.1-0.14-0.2-0.23-0.28L60.23,0.44
		c-0.12-0.1-0.25-0.18-0.39-0.24c-0.04-0.02-0.09-0.03-0.13-0.04c-0.1-0.03-0.21-0.05-0.31-0.06c-0.03,0-0.06-0.02-0.08-0.02H21.47
		c-5.4,0-9.8,4.13-9.8,9.21v19.86c-4.81,7.41-7.36,16-7.36,24.86s2.55,17.45,7.36,24.86v12c0,5.08,4.4,9.21,9.8,9.21H80.4
		c5.41,0,9.8-4.13,9.8-9.21V75.81C93.82,69.15,95.74,61.62,95.74,54.02z M11.67,73.47c-3.05-6-4.65-12.64-4.65-19.46
		s1.6-13.45,4.65-19.46V73.47z M93.03,54.02c0,5.25-0.97,10.47-2.83,15.35V38.67C92.06,43.55,93.03,48.76,93.03,54.02z M85.36,27.06
		H67.77c-3.91,0-7.09-2.92-7.09-6.5V4.51l19.74,18.03L85.36,27.06z M87.49,90.88c0,3.58-3.18,6.5-7.09,6.5H21.47
		c-3.91,0-7.09-2.92-7.09-6.5V9.29c0-3.58,3.18-6.5,7.09-6.5h36.5v17.77c0,5.08,4.4,9.21,9.8,9.21h19.72v2.77v42.93V90.88z"/>
</g>
</svg>
