<?xml version="1.0" encoding="utf-8"?>
<!-- Generator: Adobe Illustrator 24.0.0, SVG Export Plug-In . SVG Version: 6.00 Build 0)  -->
<svg version="1.0" id="Layer_1" xmlns="http://www.w3.org/2000/svg" xmlns:xlink="http://www.w3.org/1999/xlink" x="0px" y="0px"
	 viewBox="0 0 100 100" style="enable-background:new 0 0 100 100;" xml:space="preserve">
<path d="M90.48,26.55c-3.33-5.4-7.78-10.15-12.95-13.83c0.42-2.82-0.81-5.63-3.7-8.35c-3.23-3.04-6.5-4.08-9.72-3.1
	c-1.88,0.57-3.59,1.84-5.13,3.52c-5.9-1.13-12.03-1.13-17.93,0c-1.54-1.68-3.25-2.94-5.13-3.52c-3.22-0.98-6.49,0.06-9.72,3.1
	c-2.89,2.72-4.12,5.52-3.7,8.34c-5.17,3.68-9.61,8.43-12.95,13.83c-5.3,0.23-9.55,4.6-9.55,9.96v8.57c0,0.78,0.63,1.41,1.41,1.41
	h1.34c-0.18,1.68-0.27,3.34-0.27,4.97c0,6.78,1.42,13.33,4.19,19.49v6.71c0,7.52,6.31,13.63,14.06,13.63h3.37
	c7.72,5.03,16.66,7.69,25.9,7.69c9.24,0,18.19-2.66,25.9-7.69h3.37c7.75,0,14.06-6.12,14.06-13.63v-6.71
	c2.78-6.16,4.19-12.72,4.19-19.49c0-1.63-0.09-3.29-0.27-4.97h1.34c0.78,0,1.41-0.63,1.41-1.41v-8.57
	C100.03,31.15,95.78,26.78,90.48,26.55z M97.21,36.51v7.16h-0.29h-5.29h-1.78H51.53V29.35h10.32h28.2
	C94,29.35,97.21,32.56,97.21,36.51z M87.13,26.53H59.5c0.48-0.17,0.96-0.35,1.45-0.54c0.05-0.02,0.1-0.04,0.15-0.06
	c0.53-0.2,1.06-0.42,1.6-0.64c0.27-0.11,0.53-0.22,0.79-0.34c0.18-0.08,0.36-0.15,0.54-0.23c0.29-0.13,0.57-0.25,0.85-0.38
	c0.18-0.08,0.35-0.16,0.53-0.24c0.27-0.13,0.54-0.26,0.81-0.39c0.16-0.08,0.32-0.16,0.48-0.24c0.27-0.13,0.53-0.27,0.79-0.4
	c0.14-0.07,0.27-0.15,0.41-0.22c0.27-0.14,0.53-0.28,0.79-0.43c0.08-0.04,0.15-0.09,0.23-0.13c0.91-0.52,1.75-1.04,2.52-1.57
	c0.08-0.06,0.17-0.11,0.24-0.17c0.22-0.15,0.42-0.31,0.63-0.46c0.09-0.07,0.18-0.14,0.27-0.2c0.2-0.15,0.39-0.3,0.57-0.46
	c0.08-0.07,0.16-0.14,0.24-0.2c0.18-0.16,0.37-0.32,0.54-0.47c0.06-0.05,0.11-0.11,0.17-0.16c0.81-0.77,1.49-1.54,2.02-2.33
	c0.04-0.06,0.08-0.11,0.11-0.17c0.11-0.17,0.21-0.34,0.31-0.51c0.02-0.03,0.04-0.07,0.06-0.1C80.68,18.53,84.28,22.3,87.13,26.53z
	 M64.94,3.98c0.5-0.15,1.01-0.23,1.52-0.23c1.74,0,3.53,0.89,5.45,2.69c2.38,2.24,3.28,4.32,2.76,6.36l-0.04,0.15
	c-0.06,0.21-0.14,0.42-0.22,0.62c0,0.01-0.01,0.01-0.01,0.02c-0.09,0.2-0.18,0.4-0.29,0.6c-0.01,0.01-0.01,0.02-0.02,0.03
	c-0.11,0.2-0.23,0.39-0.37,0.59c0,0-0.01,0.01-0.01,0.01c-3.6,5.19-15.09,9.33-21.61,11.16c0.59-2.13,1.61-5.49,3.02-8.97
	c0.07-0.16,0.13-0.32,0.2-0.49c0.02-0.05,0.04-0.11,0.07-0.16c1.32-3.12,2.9-6.19,4.7-8.52c0.16-0.21,0.33-0.41,0.49-0.61l0.03-0.04
	C61.94,5.61,63.39,4.45,64.94,3.98z M43.07,7.3c4.6-0.72,9.32-0.72,13.92,0c-1.41,2.04-2.63,4.39-3.68,6.76
	c-0.02,0.05-0.04,0.09-0.06,0.14c-0.28,0.64-0.56,1.28-0.81,1.92c-0.07,0.18-0.15,0.36-0.22,0.55c-0.17,0.44-0.34,0.87-0.5,1.3
	c-0.12,0.32-0.24,0.64-0.35,0.96c-0.08,0.23-0.16,0.45-0.24,0.67c-0.17,0.48-0.32,0.94-0.47,1.4c-0.05,0.15-0.1,0.29-0.14,0.44
	c-0.16,0.5-0.31,0.97-0.45,1.43c-0.01,0.02-0.02,0.05-0.02,0.08c0-0.01-0.01-0.02-0.01-0.03c-0.15-0.49-0.31-1-0.48-1.53
	c-0.03-0.11-0.07-0.21-0.11-0.32c-0.16-0.49-0.33-0.98-0.51-1.5c-0.06-0.19-0.13-0.37-0.2-0.56c-0.14-0.38-0.28-0.77-0.42-1.16
	c-0.14-0.36-0.28-0.73-0.42-1.09c-0.09-0.23-0.18-0.46-0.28-0.69c-0.24-0.59-0.49-1.18-0.75-1.77c-0.04-0.08-0.07-0.17-0.11-0.25
	C45.69,11.67,44.47,9.32,43.07,7.3z M28.15,6.43c1.91-1.8,3.71-2.69,5.45-2.69c0.51,0,1.02,0.08,1.52,0.23
	c1.54,0.47,2.99,1.63,4.33,3.21l0.04,0.05c0.17,0.2,0.33,0.4,0.5,0.62c1.8,2.32,3.38,5.38,4.7,8.5c0.03,0.07,0.06,0.13,0.08,0.2
	c0.06,0.15,0.12,0.29,0.18,0.44c1.42,3.48,2.44,6.85,3.02,8.98c-0.15-0.04-0.3-0.08-0.45-0.13c-0.01,0-0.03-0.01-0.04-0.01
	c-6.6-1.89-17.6-5.96-21.11-11.02c0,0,0-0.01-0.01-0.01c-0.14-0.2-0.26-0.4-0.37-0.6c0-0.01-0.01-0.01-0.01-0.02
	c-0.11-0.2-0.21-0.4-0.3-0.6c0,0,0-0.01-0.01-0.01c-0.09-0.21-0.16-0.42-0.22-0.63l-0.04-0.15C24.87,10.75,25.77,8.67,28.15,6.43z
	 M23.47,15.5c0.02,0.04,0.05,0.08,0.07,0.12c0.09,0.16,0.19,0.32,0.29,0.48c0.04,0.07,0.09,0.13,0.13,0.2
	c0.12,0.17,0.23,0.34,0.36,0.51c0.01,0.02,0.03,0.03,0.04,0.05c0.45,0.59,0.98,1.17,1.59,1.74c0.07,0.06,0.13,0.13,0.2,0.19
	c0.17,0.15,0.34,0.31,0.52,0.46c0.09,0.07,0.17,0.15,0.26,0.22c0.18,0.15,0.36,0.3,0.56,0.44c0.09,0.07,0.19,0.15,0.29,0.22
	c0.2,0.15,0.4,0.3,0.61,0.44c0.09,0.06,0.19,0.13,0.28,0.19c0.75,0.52,1.56,1.03,2.45,1.53c0.1,0.05,0.19,0.11,0.28,0.16
	c0.25,0.14,0.5,0.27,0.76,0.41c0.15,0.08,0.29,0.16,0.44,0.24c0.25,0.13,0.5,0.26,0.76,0.39c0.17,0.08,0.34,0.17,0.51,0.25
	c0.26,0.12,0.52,0.25,0.78,0.37c0.18,0.09,0.37,0.17,0.56,0.26c0.27,0.12,0.54,0.24,0.81,0.36c0.2,0.09,0.41,0.17,0.61,0.26
	c0.24,0.1,0.48,0.21,0.73,0.31c0.53,0.22,1.06,0.43,1.58,0.63c0.07,0.03,0.13,0.05,0.2,0.08c0.47,0.18,0.93,0.35,1.39,0.52
	c0.01,0,0.02,0.01,0.03,0.01H12.92C15.78,22.3,19.37,18.53,23.47,15.5z M2.84,36.51c0-3.95,3.21-7.16,7.16-7.16h28.2h10.51v14.32
	H10.2H8.42H3.13H2.84V36.51z M5.32,51.46c0-1.62,0.1-3.29,0.28-4.97h1.16c-0.04,0.43-0.07,0.86-0.07,1.28v14.72
	C5.78,58.91,5.32,55.22,5.32,51.46z M9.51,77.66v-0.55V47.77c0-0.4,0.03-0.81,0.08-1.23c0-0.02,0.01-0.04,0.01-0.05h39.11v41.99
	H20.75C14.56,88.48,9.51,83.62,9.51,77.66z M50.03,96.16c-7.11,0-14.04-1.67-20.3-4.87h40.6C64.07,94.49,57.14,96.16,50.03,96.16z
	 M90.54,77.66c0,5.97-5.04,10.82-11.24,10.82H51.53V46.49h38.92c0,0.02,0.01,0.03,0.01,0.05c0.05,0.42,0.08,0.83,0.08,1.23v29.34
	V77.66z M94.73,51.46c0,3.76-0.46,7.45-1.38,11.04V47.77c0-0.42-0.02-0.85-0.07-1.28h1.16C94.64,48.17,94.73,49.83,94.73,51.46z"/>
</svg>
