<?xml version="1.0" encoding="utf-8"?>
<!-- Generator: Adobe Illustrator 24.0.0, SVG Export Plug-In . SVG Version: 6.00 Build 0)  -->
<svg version="1.0" id="Layer_1" xmlns="http://www.w3.org/2000/svg" xmlns:xlink="http://www.w3.org/1999/xlink" x="0px" y="0px"
	 viewBox="0 0 100 100" style="enable-background:new 0 0 100 100;" xml:space="preserve">
<path d="M50.03,0.08c-27.57,0-50,22.43-50,50c0,27.57,22.43,50,50,50c27.57,0,50-22.43,50-50C100.03,22.51,77.6,0.08,50.03,0.08z
	 M61.23,23.37c-1.32,0.21-2.18,0.7-3.03,1.18c-1.43,0.81-3.2,1.82-8.88,1.82c-5,0-8.36,2.75-10.49,6v-9.66
	c0.13-0.82,4.17-3.19,11.2-3.19c7.03,0,11.08,2.37,11.2,3.19V23.37z M38.82,40.42c0.19-1.16,2.09-11.08,10.49-11.08
	c6.46,0,8.62-1.22,10.35-2.2c0.57-0.32,1.02-0.57,1.56-0.73v8.89h-4.86c-0.82,0-1.48,0.66-1.48,1.48c0,0.82,0.66,1.48,1.48,1.48
	h4.86v7.22h-4.86c-0.82,0-1.48,0.66-1.48,1.48c0,0.82,0.66,1.48,1.48,1.48h4.86v14.25c-11.78,0.96-12.62,13.37-12.68,20.74
	c-5.48-0.73-9.72-5.42-9.72-11.09V40.42z M61.23,65.67v6.67c0,5.67-4.23,10.35-9.7,11.09C51.69,73.29,53.61,66.44,61.23,65.67z
	 M51.51,97.08V86.43c7.12-0.74,12.68-6.78,12.68-14.08V22.71c0-3.85-7.2-6.15-14.16-6.15c-6.96,0-14.16,2.3-14.16,6.15v49.63
	c0,7.31,5.57,13.34,12.68,14.08v10.66c-25.25-0.79-45.55-21.56-45.55-47c0-25.94,21.1-47.04,47.04-47.04
	c25.94,0,47.04,21.1,47.04,47.04C97.06,75.52,76.76,96.3,51.51,97.08z"/>
</svg>
