<?xml version="1.0" encoding="utf-8"?>
<!-- Generator: Adobe Illustrator 24.0.0, SVG Export Plug-In . SVG Version: 6.00 Build 0)  -->
<svg version="1.0" id="Layer_1" xmlns="http://www.w3.org/2000/svg" xmlns:xlink="http://www.w3.org/1999/xlink" x="0px" y="0px"
	 viewBox="0 0 283.46 283.46" style="enable-background:new 0 0 283.46 283.46;" xml:space="preserve">
<g>
	<path d="M261.06,134.09c-10.08-27.44-36.2-45.75-65.51-45.75c-0.76,0-1.53,0.02-2.32,0.04c-5.87-29.11-31.49-50.42-61.73-50.42
		c-34.75,0-63.01,28.27-63.01,63.02c0,6.35,0.98,12.68,2.86,18.74c-2.53-0.31-5.09-0.46-7.66-0.46c-34.95,0-63.39,28.44-63.39,63.39
		s28.44,63.39,63.39,63.39h156.69c34.95,0,63.39-28.44,63.39-63.39C283.77,163.8,275.52,146.2,261.06,134.09z M220.38,234.43H63.69
		c-28.55,0-51.78-23.23-51.78-51.79s23.23-51.79,51.78-51.79c5.28,0,10.49,0.8,15.5,2.36c2.24,0.7,4.69-0.02,6.2-1.82
		c1.51-1.81,1.77-4.35,0.67-6.43c-3.95-7.47-5.96-15.55-5.96-23.99c0-28.35,23.06-51.41,51.41-51.41
		c26.21,0,48.17,19.62,51.06,45.65c0.17,1.53,0.94,2.93,2.15,3.89c1.21,0.96,2.73,1.4,4.27,1.23c2.38-0.27,4.53-0.4,6.57-0.4
		c24.91,0,47.05,15.87,55.09,39.48c0.36,1.05,1.01,1.98,1.88,2.67c12.48,9.91,19.63,24.69,19.63,40.55
		C272.16,211.2,248.93,234.43,220.38,234.43z"/>
	<path d="M139.72,118.28c-0.03-0.03-0.08-0.04-0.11-0.07c-0.5-0.43-1.06-0.79-1.69-1.03c-0.06-0.03-0.13-0.04-0.19-0.06
		c-0.6-0.21-1.23-0.35-1.91-0.35c-0.01,0-0.02,0-0.03,0c-0.02,0-0.03,0-0.05,0.01c-0.68,0.01-1.33,0.15-1.93,0.37
		c-0.05,0.02-0.1,0.03-0.14,0.04c-0.64,0.26-1.21,0.63-1.71,1.08c-0.03,0.03-0.07,0.03-0.1,0.06L97.3,150.72
		c-2.34,2.19-2.46,5.87-0.26,8.2c2.19,2.33,5.86,2.45,8.2,0.26l24.77-23.23v64.33c0,3.2,2.6,5.8,5.8,5.8s5.8-2.6,5.8-5.8v-64.6
		l25.92,23.56c1.11,1.01,2.51,1.51,3.9,1.51c1.58,0,3.15-0.64,4.29-1.9c2.15-2.37,1.98-6.04-0.39-8.2L139.72,118.28z"/>
</g>
</svg>
