<?xml version="1.0" encoding="utf-8"?>
<!-- Generator: Adobe Illustrator 24.0.0, SVG Export Plug-In . SVG Version: 6.00 Build 0)  -->
<svg version="1.1" id="Layer_1" xmlns="http://www.w3.org/2000/svg" xmlns:xlink="http://www.w3.org/1999/xlink" x="0px" y="0px"
	 viewBox="0 0 164.8 112.9" style="enable-background:new 0 0 164.8 112.9;" xml:space="preserve">
<polygon points="102.2,108.2 91.1,97 91.1,112.7 93.1,112.7 93.1,101.7 104.1,112.9 104.1,97.2 102.2,97.2 "/>
<rect x="127.5" y="97.2" width="2" height="15.5"/>
<path d="M159.8,111c-3.4,0-5.9-2.6-5.9-6c0-3.4,2.5-6,5.9-6c1.5,0,2.9,0.6,3.9,1.4l1.2-1.5c-1.3-1.2-3.1-1.8-5-1.8
	c-4.4,0-7.9,3.4-7.9,7.9c0,4.5,3.5,7.9,7.9,7.9c1.9,0,3.7-0.6,5-1.8l-1.2-1.5C162.7,110.4,161.4,111,159.8,111"/>
<rect x="65.7" y="97.2" width="2" height="15.5"/>
<polygon points="94.2,0 129.4,73.1 129.4,73.1 133.6,64.4 102.6,0 "/>
<path d="M70.2,8.3c-4.3-2.7-8.9-4.8-13.8-6.1C51.5,0.8,46.4,0.1,41,0v1c10.2,0.3,18.5,3.4,25,9.3c6.4,5.9,9.6,14.6,9.6,26.2
	c0,11.5-3.2,20.2-9.6,26.1s-14.7,9-24.9,9.5v0.9c5.4-0.1,10.6-0.8,15.4-2.2s9.5-3.5,13.8-6.2c4.3-2.7,7.8-6.5,10.3-11.4
	c2.5-4.8,3.8-10.4,3.8-16.8c0-6.4-1.3-12-3.9-16.9C78,14.8,74.5,11,70.2,8.3"/>
<polygon points="102.6,64.9 94.2,47.4 94.2,73.1 102.6,73.1 "/>
<rect width="8.5" height="73.1"/>
<polygon points="37.2,97.2 35.2,97.2 35.2,112.7 44,112.7 44,110.7 37.2,110.7 "/>
<rect x="156.3" width="8.5" height="73.1"/>
<path d="M8,98.9c1.5,0,2.9,0.6,3.9,1.4l1.2-1.5C11.6,97.6,9.9,97,8,97c-4.4,0-7.9,3.4-7.9,7.9c0,4.5,3.5,7.9,7.9,7.9
	c1.9,0,3.7-0.6,5-1.8l-1.2-1.5c-1,0.9-2.3,1.4-3.9,1.4c-3.4,0-5.9-2.6-5.9-6C2.1,101.5,4.6,98.9,8,98.9"/>
<rect x="24.9" width="8.5" height="73.1"/>
</svg>
