<?xml version="1.0" encoding="utf-8"?>
<!-- Generator: Adobe Illustrator 24.0.0, SVG Export Plug-In . SVG Version: 6.00 Build 0)  -->
<svg version="1.0" id="Layer_1" xmlns="http://www.w3.org/2000/svg" xmlns:xlink="http://www.w3.org/1999/xlink" x="0px" y="0px"
	 viewBox="0 0 100 100" style="enable-background:new 0 0 100 100;" xml:space="preserve">
<path d="M90.93,12.32H76.37c-7.74-5.39-16.8-8.24-26.24-8.24c-9.44,0-18.5,2.85-26.24,8.24H9.12c-5.01,0-9.09,4.08-9.09,9.09v57.53
	c0,5.01,4.08,9.09,9.09,9.09h15.05c7.67,5.26,16.64,8.04,25.96,8.04c9.32,0,18.29-2.78,25.96-8.04h14.85c5.01,0,9.09-4.08,9.09-9.09
	V21.41C100.03,16.4,95.95,12.32,90.93,12.32z M50.13,6.81c7.47,0,14.69,1.89,21.13,5.51H29C35.43,8.71,42.65,6.81,50.13,6.81z
	 M20.04,15.05h60.18h10.72c1.21,0,2.33,0.34,3.29,0.93L50.14,60.12L5.74,16.03c0.98-0.62,2.13-0.98,3.37-0.98H20.04z M3.78,82.41
	c-0.65-1-1.03-2.19-1.03-3.46V21.41c0-1.28,0.39-2.48,1.04-3.48l32.03,31.81L3.78,82.41z M50.13,93.36
	c-7.33,0-14.43-1.83-20.78-5.32h41.56C64.56,91.53,57.46,93.36,50.13,93.36z M97.3,78.95c0,3.51-2.85,6.36-6.36,6.36H80H20.25H9.12
	c-1.25,0-2.41-0.37-3.39-0.99l32.03-32.66l12.38,12.3l11.93-11.95l31.71,32.11l1.94-1.92L64.01,50.09l32.2-32.24
	c0.69,1.02,1.09,2.24,1.09,3.56V78.95z"/>
</svg>
