<?xml version="1.0" encoding="utf-8"?>
<!-- Generator: Adobe Illustrator 24.0.0, SVG Export Plug-In . SVG Version: 6.00 Build 0)  -->
<svg version="1.0" id="Layer_1" xmlns="http://www.w3.org/2000/svg" xmlns:xlink="http://www.w3.org/1999/xlink" x="0px" y="0px"
	 viewBox="0 0 100 100" style="enable-background:new 0 0 100 100;" xml:space="preserve">
<g>
	<path d="M87.76,18.77H80.3c-2.8-2.45-5.85-4.52-9.1-6.21C69.45,5.8,63.32,0.78,56.02,0.78H44.03c-7.3,0-13.43,5.02-15.17,11.78
		c-3.25,1.69-6.3,3.76-9.1,6.21h-7.46c-6.76,0-12.27,5.5-12.27,12.27v45.82c0,6.77,5.5,12.27,12.27,12.27h8.79
		c8.16,6.62,18.42,10.26,28.94,10.26s20.78-3.64,28.94-10.26h8.79c6.77,0,12.27-5.5,12.27-12.27V31.04
		C100.03,24.28,94.52,18.77,87.76,18.77z M75.99,18.77h-4.28v-2.3c0-0.18-0.02-0.36-0.03-0.55C73.17,16.79,74.61,17.74,75.99,18.77z
		 M31.07,16.47c0-0.71,0.07-1.39,0.18-2.07c5.81-2.8,12.21-4.29,18.78-4.29c6.56,0,12.97,1.49,18.78,4.29
		c0.11,0.67,0.18,1.36,0.18,2.07v2.3H31.07V16.47z M44.03,3.51h11.99c5.17,0,9.62,3.05,11.7,7.43c-5.56-2.32-11.56-3.55-17.7-3.55
		c-6.14,0-12.14,1.23-17.7,3.55C34.41,6.56,38.86,3.51,44.03,3.51z M28.37,15.93c-0.01,0.18-0.03,0.36-0.03,0.55v2.3h-4.28
		C25.45,17.74,26.88,16.79,28.37,15.93z M50.03,96.66c-8.72,0-17.24-2.65-24.4-7.53h48.79C67.27,94.01,58.74,96.66,50.03,96.66z
		 M97.3,76.86c0,5.26-4.28,9.54-9.54,9.54h-5.48h-64.5h-5.48c-5.26,0-9.54-4.28-9.54-9.54V31.04c0-5.26,4.28-9.54,9.54-9.54h4.4
		h66.67h4.4c5.26,0,9.54,4.28,9.54,9.54V76.86z"/>
	<path d="M56.72,34.43H43.33v12.55H30.78v13.39h12.55v12.55h13.39V60.37h12.55V46.98H56.72V34.43z M66.54,49.7v7.93H53.99v12.55
		h-7.93V57.64H33.51V49.7h12.55V37.16h7.93V49.7H66.54z"/>
</g>
</svg>
