<?xml version="1.0" encoding="utf-8"?>
<!-- Generator: Adobe Illustrator 24.0.0, SVG Export Plug-In . SVG Version: 6.00 Build 0)  -->
<svg version="1.0" id="Layer_1" xmlns="http://www.w3.org/2000/svg" xmlns:xlink="http://www.w3.org/1999/xlink" x="0px" y="0px"
	 viewBox="0 0 100 100" style="enable-background:new 0 0 100 100;" xml:space="preserve">
<g>
	<path d="M98.75,14.42c-0.71,0-1.28,0.57-1.28,1.28v64.86c0,4.93-4.01,8.95-8.95,8.95H23.68c-4.93,0-8.95-4.01-8.95-8.95V19.61
		c0-4.93,4.01-8.95,8.95-8.95h59.49v59.82c0,0.71,0.57,1.28,1.28,1.28s1.28-0.57,1.28-1.28V9.39c0-0.71-0.57-1.28-1.28-1.28H23.68
		c-6.34,0-11.5,5.16-11.5,11.5v1.03C4.34,28.73,0.03,39.36,0.03,50.63c0,11.28,4.32,21.9,12.15,29.99
		c0.04,6.31,5.18,11.44,11.5,11.44h64.84c6.34,0,11.5-5.16,11.5-11.5V15.7C100.03,14.99,99.45,14.42,98.75,14.42z M12.18,24.43v52.4
		c-6.21-7.32-9.59-16.5-9.59-26.2C2.58,40.94,5.97,31.75,12.18,24.43z"/>
	<path d="M73.04,20.61H22.89c-0.71,0-1.28,0.57-1.28,1.28c0,0.71,0.57,1.28,1.28,1.28h50.15c0.71,0,1.28-0.57,1.28-1.28
		C74.32,21.19,73.74,20.61,73.04,20.61z"/>
	<path d="M73.04,68.34H22.89c-0.71,0-1.28,0.57-1.28,1.28s0.57,1.28,1.28,1.28h50.15c0.71,0,1.28-0.57,1.28-1.28
		S73.74,68.34,73.04,68.34z"/>
	<path d="M73.04,52.14H57.62c-0.71,0-1.28,0.57-1.28,1.28c0,0.71,0.57,1.28,1.28,1.28h15.42c0.71,0,1.28-0.57,1.28-1.28
		C74.32,52.72,73.74,52.14,73.04,52.14z"/>
	<path d="M73.04,43.62H57.62c-0.71,0-1.28,0.57-1.28,1.28s0.57,1.28,1.28,1.28h15.42c0.71,0,1.28-0.57,1.28-1.28
		S73.74,43.62,73.04,43.62z"/>
	<path d="M73.04,35.1H57.62c-0.71,0-1.28,0.57-1.28,1.28s0.57,1.28,1.28,1.28h15.42c0.71,0,1.28-0.57,1.28-1.28
		S73.74,35.1,73.04,35.1z"/>
	<path d="M73.04,79.41H31.41c-0.71,0-1.28,0.57-1.28,1.28s0.57,1.28,1.28,1.28h41.62c0.71,0,1.28-0.57,1.28-1.28
		S73.74,79.41,73.04,79.41z"/>
	<path d="M22.89,58.7h23.78c0.71,0,1.28-0.57,1.28-1.28V32.3c0-0.71-0.57-1.28-1.28-1.28H22.89c-0.71,0-1.28,0.57-1.28,1.28v25.13
		C21.61,58.13,22.19,58.7,22.89,58.7z M24.17,33.57h21.22v22.57H24.17V33.57z"/>
</g>
</svg>
