<?xml version="1.0" encoding="utf-8"?>
<!-- Generator: Adobe Illustrator 24.0.0, SVG Export Plug-In . SVG Version: 6.00 Build 0)  -->
<svg version="1.0" id="Layer_1" xmlns="http://www.w3.org/2000/svg" xmlns:xlink="http://www.w3.org/1999/xlink" x="0px" y="0px"
	 viewBox="0 0 100 100" style="enable-background:new 0 0 100 100;" xml:space="preserve">
<style type="text/css">
	.st0{fill:#020203;}
</style>
<g>
	<g>
		<g>
			<path class="st0" d="M97.76,79.03L82.31,63.58c-3.08-3.06-8.17-2.97-11.35,0.21l-7.78,7.78c-0.49-0.27-1-0.55-1.54-0.85
				C56.73,68,50.01,64.27,42.93,57.19c-7.1-7.1-10.83-13.83-13.56-18.75c-0.29-0.52-0.56-1.02-0.84-1.5l5.22-5.21l2.57-2.57
				c3.19-3.19,3.28-8.28,0.21-11.35L21.08,2.35c-3.07-3.07-8.17-2.98-11.35,0.21L5.38,6.95L5.5,7.06c-1.46,1.86-2.68,4.01-3.59,6.33
				c-0.84,2.2-1.36,4.31-1.6,6.42C-1.72,36.71,6,52.16,26.97,73.13c28.98,28.98,52.34,26.79,53.34,26.68
				c2.19-0.26,4.3-0.79,6.43-1.62c2.3-0.9,4.44-2.11,6.3-3.57l0.1,0.08l4.41-4.32C100.73,87.2,100.83,82.11,97.76,79.03z"/>
		</g>
	</g>
</g>
</svg>
