<?xml version="1.0" encoding="utf-8"?>
<!-- Generator: Adobe Illustrator 24.0.0, SVG Export Plug-In . SVG Version: 6.00 Build 0)  -->
<svg version="1.0" id="Layer_1" xmlns="http://www.w3.org/2000/svg" xmlns:xlink="http://www.w3.org/1999/xlink" x="0px" y="0px"
	 viewBox="0 0 100 100" style="enable-background:new 0 0 100 100;" xml:space="preserve">
<path d="M94.31,10.84H5.74c-3.14,0-5.72,2.57-5.72,5.72v67.05c0,3.14,2.57,5.72,5.72,5.72h88.56c3.14,0,5.72-2.57,5.72-5.72V16.56
	C100.03,13.42,97.45,10.84,94.31,10.84z M21.1,21.8c5.8,0,10.51,4.7,10.51,10.51c0,5.8-4.7,10.51-10.51,10.51S10.6,38.11,10.6,32.31
	C10.6,26.51,15.3,21.8,21.1,21.8z M89.46,78.37H10.6V67.37l17.44-17.44l9.31,9.31l28.79-28.79l23.32,23.32V78.37z"/>
</svg>
