<?xml version="1.0" encoding="utf-8"?>
<!-- Generator: Adobe Illustrator 24.0.0, SVG Export Plug-In . SVG Version: 6.00 Build 0)  -->
<svg version="1.0" id="Layer_1" xmlns="http://www.w3.org/2000/svg" xmlns:xlink="http://www.w3.org/1999/xlink" x="0px" y="0px"
	 viewBox="0 0 100 100" style="enable-background:new 0 0 100 100;" xml:space="preserve">
<g>
	<path d="M95.15,84.16c2.77-4.79,4.23-10.24,4.23-15.8c0-5.93-1.65-11.53-4.54-16.32c0.03-0.66,0.05-1.31,0.05-1.95
		c0-21.85-16.19-40.84-37.71-44.29c-5.67-3.54-12.36-5.6-19.53-5.6c-20.39,0-36.98,16.59-36.98,36.98c0,6.41,1.67,12.69,4.81,18.23
		c0.03,0.22,0.05,0.44,0.08,0.66L0.03,73.92l10.47-2.68c7.84,14.65,22.88,23.71,39.53,23.71c0.23,0,0.45-0.01,0.68-0.02l0.02,0
		c4.96,3.19,10.82,5.04,17.03,5.04c5.62,0,11.11-1.49,15.93-4.3l16.34,4.18L95.15,84.16z M92.19,48.28
		c-3.83-4.66-8.99-8.22-14.97-10.09c-0.04-0.01-0.08-0.02-0.12-0.04c-0.79-0.24-1.59-0.46-2.4-0.64c-0.03-0.01-0.05-0.01-0.08-0.02
		c0-0.1,0-0.21,0-0.32c0-0.65-0.02-1.29-0.05-1.93c-0.01-0.28-0.04-0.57-0.06-0.85c-0.03-0.35-0.05-0.7-0.08-1.05
		c-0.04-0.4-0.1-0.79-0.15-1.18c-0.03-0.22-0.05-0.45-0.09-0.67c-0.07-0.48-0.16-0.96-0.26-1.43c-0.02-0.12-0.04-0.25-0.07-0.37
		c-0.11-0.55-0.24-1.1-0.38-1.65c-0.01-0.04-0.02-0.07-0.03-0.11c-1.79-6.99-5.6-13.3-11.01-18.18
		C79.23,14.95,91.42,30.45,92.19,48.28z M6.43,62.25L6.43,62.25l1.59-5.11l0.54-1.74l0,0l0,0l-0.31-0.51c0,0,0-0.01-0.01-0.01
		c-3.21-5.33-4.91-11.45-4.91-17.7c0-18.92,15.4-34.32,34.32-34.32c6.93,0,13.38,2.07,18.78,5.62c0.29,0.19,0.58,0.39,0.86,0.58
		c0.27,0.19,0.55,0.38,0.81,0.58c0.16,0.12,0.3,0.24,0.46,0.36c5.07,3.91,9.02,9.19,11.28,15.3c0.03,0.08,0.06,0.17,0.09,0.25
		c0.17,0.46,0.33,0.93,0.47,1.4c0.03,0.11,0.06,0.21,0.09,0.32c0.22,0.72,0.41,1.44,0.58,2.18c0.07,0.32,0.15,0.63,0.21,0.95
		c0.06,0.29,0.1,0.58,0.15,0.86c0.07,0.38,0.13,0.76,0.18,1.14c0.04,0.26,0.07,0.53,0.1,0.8c0.05,0.44,0.09,0.87,0.12,1.31
		c0.02,0.22,0.04,0.44,0.05,0.66c0.04,0.67,0.06,1.33,0.06,2.01c0,0.45-0.02,0.9-0.03,1.34l0,0c-0.02,0.55-0.06,1.1-0.1,1.65
		c0,0.03,0,0.06-0.01,0.09c-0.04,0.48-0.1,0.96-0.16,1.43c-0.01,0.11-0.03,0.23-0.04,0.34c-0.05,0.38-0.12,0.75-0.18,1.12
		c-0.04,0.22-0.07,0.44-0.12,0.66c-0.05,0.26-0.11,0.51-0.16,0.77c-0.07,0.34-0.15,0.68-0.23,1.01c-0.03,0.13-0.07,0.26-0.1,0.39
		C67.28,59.3,55.91,69.46,41.96,71.22c-1.37,0.17-2.75,0.27-4.17,0.28l-0.24,0c-6.27-0.02-12.39-1.74-17.72-4.98l-0.48-0.29
		L9.23,68.82l0,0l-5.25,1.34L6.43,62.25z M13.12,70.57l5.81-1.49c0.69,0.41,1.39,0.79,2.11,1.15c0.22,0.11,0.46,0.21,0.68,0.32
		c0.49,0.24,0.99,0.47,1.49,0.68c0.28,0.12,0.57,0.22,0.86,0.34c0.45,0.18,0.91,0.36,1.37,0.52c0.31,0.11,0.63,0.2,0.95,0.3
		c0.44,0.14,0.88,0.28,1.33,0.41c0.33,0.09,0.67,0.17,1.01,0.25c0.44,0.11,0.87,0.22,1.31,0.31c0.35,0.07,0.7,0.13,1.05,0.2
		c0.43,0.08,0.86,0.16,1.3,0.22c0.36,0.05,0.72,0.09,1.08,0.13c0.43,0.05,0.86,0.1,1.3,0.13c0.37,0.03,0.74,0.05,1.1,0.06
		c0.26,0.01,0.53,0.04,0.79,0.05c0.01,0.03,0.02,0.06,0.02,0.1c0.15,0.77,0.32,1.53,0.52,2.27c0.04,0.13,0.07,0.27,0.11,0.4
		c0.2,0.7,0.42,1.39,0.67,2.08c0.07,0.19,0.14,0.38,0.21,0.56c0.23,0.61,0.48,1.22,0.76,1.81c0.12,0.27,0.26,0.55,0.39,0.82
		c0.19,0.39,0.4,0.78,0.61,1.17c0.27,0.49,0.55,0.98,0.84,1.45c0.06,0.1,0.12,0.2,0.18,0.29c1.64,2.63,3.65,5.03,6.01,7.09
		C32.75,91.17,20.09,83.12,13.12,70.57z M83.27,92.82l-0.48,0.29c-4.52,2.75-9.72,4.2-15.03,4.2c-11.96,0-22.55-7.48-26.88-18.2
		c-0.04-0.09-0.07-0.18-0.11-0.27c-0.11-0.27-0.2-0.54-0.3-0.82c-0.07-0.18-0.13-0.37-0.19-0.56c-0.08-0.23-0.15-0.46-0.22-0.69
		c-0.08-0.25-0.15-0.5-0.22-0.76c-0.05-0.19-0.1-0.37-0.15-0.56c-0.1-0.39-0.19-0.79-0.28-1.19c-0.01-0.06-0.03-0.11-0.04-0.16
		c0,0,0,0,0,0c0,0,0.01,0,0.01,0c0.38-0.02,0.75-0.05,1.13-0.08c0.24-0.02,0.48-0.03,0.72-0.05c0.28-0.03,0.56-0.06,0.85-0.1
		c0.34-0.04,0.67-0.08,1.01-0.13c0.2-0.03,0.4-0.06,0.6-0.1c0.43-0.07,0.86-0.14,1.28-0.23c0.11-0.02,0.22-0.05,0.34-0.07
		c0.53-0.11,1.05-0.23,1.57-0.36c0.01,0,0.03-0.01,0.04-0.01c12.97-3.32,23.17-13.45,26.53-26.47c0.03-0.13,0.06-0.26,0.1-0.39
		c0.1-0.4,0.19-0.8,0.28-1.21c0.06-0.27,0.11-0.55,0.16-0.83c0.05-0.26,0.1-0.52,0.14-0.78c0.06-0.38,0.12-0.76,0.17-1.14
		c0.02-0.16,0.04-0.33,0.06-0.49c0.06-0.45,0.1-0.91,0.14-1.36c0-0.04,0.01-0.08,0.01-0.12c0.01,0,0.02,0,0.03,0.01
		c0.68,0.16,1.34,0.36,2,0.57c0.21,0.07,0.42,0.13,0.64,0.21c0.58,0.2,1.16,0.42,1.72,0.65c0.29,0.12,0.58,0.25,0.86,0.38
		c0.31,0.14,0.61,0.29,0.91,0.44c0.57,0.29,1.14,0.59,1.69,0.91c0.18,0.11,0.37,0.21,0.55,0.32c0.37,0.23,0.74,0.46,1.1,0.71
		c0.11,0.08,0.22,0.16,0.33,0.23c0.65,0.46,1.29,0.94,1.91,1.45c0.12,0.1,0.24,0.2,0.36,0.3c1.01,0.87,1.97,1.81,2.86,2.81
		c0.16,0.18,0.32,0.37,0.48,0.56c0.34,0.4,0.67,0.82,0.99,1.24c0.24,0.32,0.47,0.64,0.7,0.96c0.19,0.27,0.36,0.55,0.54,0.82
		c2.89,4.53,4.56,9.89,4.56,15.58c0,5.28-1.44,10.45-4.15,14.95l-0.31,0.51l3.81,12.29L83.27,92.82z"/>
	<path d="M25.29,28.34c0.73,0,1.33-0.6,1.33-1.33c0-5.17,4.2-9.37,9.37-9.37s9.37,4.2,9.37,9.37c0,3.77-2.51,6.12-5.97,9.36
		c-1.27,1.18-2.7,2.53-4.13,4.06c-0.23,0.25-0.35,0.57-0.35,0.9v7.04c0,0.73,0.6,1.33,1.33,1.33s1.33-0.6,1.33-1.33v-6.52
		c1.24-1.3,2.45-2.44,3.64-3.55c3.66-3.42,6.82-6.37,6.82-11.3c0-6.63-5.4-12.03-12.03-12.03s-12.03,5.4-12.03,12.03
		C23.96,27.74,24.55,28.34,25.29,28.34z"/>
	<path d="M36.21,55.4c-0.73,0-1.32,0.59-1.32,1.32c0,0.73,0.59,1.32,1.32,1.32c0.73,0,1.32-0.59,1.32-1.32
		C37.53,55.99,36.94,55.4,36.21,55.4z"/>
</g>
</svg>
