<?xml version="1.0" encoding="utf-8"?>
<!-- Generator: Adobe Illustrator 24.0.0, SVG Export Plug-In . SVG Version: 6.00 Build 0)  -->
<svg version="1.0" id="Layer_1" xmlns="http://www.w3.org/2000/svg" xmlns:xlink="http://www.w3.org/1999/xlink" x="0px" y="0px"
	 viewBox="0 0 100 100" style="enable-background:new 0 0 100 100;" xml:space="preserve">
<path d="M96.2,23.82c2.47-2.47,3.83-5.76,3.83-9.27s-1.36-6.8-3.83-9.27L95.63,4.7c-5.11-5.11-13.43-5.11-18.54,0l-3.05,3.05
	c-7.53-4.42-16.1-6.76-24.86-6.76c-27.1,0-49.15,22.05-49.15,49.15c0,27.1,22.05,49.15,49.15,49.15s49.15-22.05,49.15-49.15
	c0-7.95-1.96-15.8-5.64-22.81L96.2,23.82z M89.88,26.02L50.29,65.61L35.3,50.62l39.76-39.76l14.99,14.99L89.88,26.02
	C89.88,26.02,89.88,26.02,89.88,26.02z M47.48,66.92l-18.51,5.01l5.01-18.51L47.48,66.92z M93.57,6.76l0.57,0.57
	c3.98,3.98,3.98,10.44,0,14.42l-2.03,2.03L77.11,8.8l2.03-2.03C83.12,2.79,89.59,2.79,93.57,6.76z M90.54,29.48
	c3.19,6.39,4.87,13.49,4.87,20.66c0,25.5-20.74,46.24-46.24,46.24c-25.5,0-46.24-20.74-46.24-46.24S23.68,3.9,49.18,3.9
	c8,0,15.82,2.06,22.74,5.98l-39.7,39.7c0,0,0,0,0,0l0,0c0,0,0,0,0,0c-0.12,0.12-0.21,0.27-0.28,0.42c-0.02,0.04-0.04,0.08-0.05,0.12
	c-0.01,0.04-0.03,0.07-0.04,0.1L25.5,73.62c-0.14,0.5,0.01,1.04,0.38,1.41c0.28,0.28,0.65,0.43,1.03,0.43
	c0.13,0,0.26-0.02,0.38-0.05l23.39-6.33c0.04-0.01,0.07-0.03,0.11-0.04c0.04-0.01,0.08-0.03,0.12-0.05c0.16-0.07,0.3-0.16,0.42-0.28
	c0,0,0,0,0,0L90.54,29.48z"/>
</svg>
