<?xml version="1.0" encoding="utf-8"?>
<!-- Generator: Adobe Illustrator 24.0.0, SVG Export Plug-In . SVG Version: 6.00 Build 0)  -->
<svg version="1.0" id="Layer_1" xmlns="http://www.w3.org/2000/svg" xmlns:xlink="http://www.w3.org/1999/xlink" x="0px" y="0px"
	 viewBox="0 0 100 100" style="enable-background:new 0 0 100 100;" xml:space="preserve">
<path d="M88.99,81.39c7.12-8.86,11.04-19.91,11.04-31.3c0-27.57-22.43-50-50-50c-27.57,0-50,22.43-50,50c0,27.57,22.43,50,50,50
	c11.38,0,22.42-3.91,31.28-11.02l3.45,3.45c0.85,0.85,1.96,1.27,3.08,1.27c1.12,0,2.23-0.42,3.08-1.27l1.53-1.53
	c1.7-1.7,1.7-4.46,0-6.15L88.99,81.39z M50.03,97.12c-25.94,0-47.04-21.1-47.04-47.04S24.09,3.05,50.03,3.05s47.04,21.1,47.04,47.04
	c0,10.6-3.6,20.91-10.18,29.2l-3.86-3.86l-9.59-9.59c3.9-5.44,6.2-12.09,6.2-19.27c0-18.28-14.87-33.16-33.16-33.16
	S13.32,28.28,13.32,46.56c0,18.28,14.87,33.16,33.16,33.16c7.18,0,13.84-2.3,19.27-6.2l9.59,9.59l3.86,3.86
	C70.92,93.53,60.62,97.12,50.03,97.12z M46.48,76.76c-16.65,0-30.19-13.54-30.19-30.19s13.54-30.19,30.19-30.19
	c16.65,0,30.19,13.54,30.19,30.19S63.13,76.76,46.48,76.76z M90.34,88.89l-1.53,1.53c-0.54,0.54-1.42,0.54-1.96,0l-3.26-3.26
	l-1.2-1.2l-4.95-4.95l-9.34-9.34c1.25-1.08,2.42-2.24,3.49-3.49l9.34,9.34l6.15,6.15l0,0l3.26,3.26
	C90.88,87.47,90.88,88.35,90.34,88.89z"/>
</svg>
