<?xml version="1.0" encoding="utf-8"?>
<!-- Generator: Adobe Illustrator 24.0.0, SVG Export Plug-In . SVG Version: 6.00 Build 0)  -->
<svg version="1.0" id="Layer_1" xmlns="http://www.w3.org/2000/svg" xmlns:xlink="http://www.w3.org/1999/xlink" x="0px" y="0px"
	 viewBox="0 0 100 100" style="enable-background:new 0 0 100 100;" xml:space="preserve">
<path d="M100,57.64c-0.09-0.46-0.42-0.84-0.87-0.99c-1.6-0.53-3.4-1.64-5.3-3c0.1-1.24,0.17-2.48,0.17-3.72
	c0-6.81-1.54-13.34-4.54-19.43c0.94-2.85,1.56-5.94,1.82-9.24c0.04-0.47-0.18-0.92-0.57-1.18c-0.39-0.26-0.89-0.29-1.31-0.08
	c-1.48,0.75-3.49,1.23-5.75,1.61c-5.22-6.19-11.98-10.79-19.63-13.36c-1.34-2.65-3.07-5.23-5.19-7.71
	c-0.31-0.36-0.78-0.53-1.24-0.43c-0.46,0.09-0.84,0.42-0.99,0.87c-0.51,1.56-1.58,3.3-2.9,5.15c-1.22-0.1-2.46-0.17-3.67-0.17
	c-6.9,0-13.51,1.57-19.66,4.66c-2.83-0.93-5.89-1.53-9.15-1.79c-0.47-0.04-0.92,0.18-1.18,0.57c-0.26,0.39-0.29,0.89-0.08,1.31
	c0.75,1.48,1.22,3.48,1.6,5.73c-6.14,5.22-10.7,11.97-13.24,19.6c-2.69,1.35-5.31,3.1-7.83,5.25c-0.36,0.31-0.52,0.78-0.43,1.24
	c0.09,0.46,0.42,0.84,0.87,0.99c1.6,0.53,3.39,1.63,5.28,2.99c-0.09,1.17-0.15,2.32-0.15,3.44c0,6.86,1.56,13.43,4.6,19.54
	c-0.98,2.9-1.62,6.05-1.88,9.41c-0.04,0.47,0.18,0.92,0.57,1.18c0.22,0.15,0.47,0.22,0.73,0.22c0.2,0,0.4-0.05,0.59-0.14
	c1.53-0.77,3.61-1.26,5.96-1.64c5.14,6.01,11.77,10.5,19.25,13.04c1.37,2.77,3.15,5.47,5.36,8.06c0.25,0.29,0.61,0.46,0.99,0.46
	c0.08,0,0.17-0.01,0.25-0.02c0.46-0.09,0.84-0.42,0.99-0.87c0.54-1.64,1.68-3.48,3.09-5.43c1.18,0.09,2.35,0.15,3.48,0.15
	c6.77,0,13.26-1.52,19.31-4.48c2.93,0.99,6.1,1.64,9.5,1.91c0.03,0,0.07,0,0.1,0c0.43,0,0.84-0.21,1.08-0.58
	c0.26-0.39,0.29-0.89,0.08-1.31c-0.77-1.53-1.26-3.62-1.65-5.98c6.06-5.14,10.59-11.78,13.16-19.27c2.73-1.36,5.4-3.13,7.95-5.31
	C99.93,58.58,100.09,58.1,100,57.64z M88.15,33.89c2.15,5.08,3.24,10.46,3.24,16.05c0,0.62-0.01,1.24-0.04,1.86
	c-0.45-0.35-0.92-0.71-1.38-1.07c-0.35-0.27-0.72-0.55-1.08-0.83c-0.1-0.08-0.21-0.16-0.31-0.24c-0.35-0.27-0.69-0.53-1.05-0.8
	c-0.58-0.44-1.18-0.89-1.79-1.33c-0.19-0.13-0.37-0.27-0.56-0.4c-0.68-0.48-1.37-0.96-2.07-1.43c-0.1-0.06-0.2-0.12-0.3-0.19
	c-0.69-0.45-1.39-0.88-2.11-1.29c-0.08-0.05-0.15-0.1-0.23-0.14c0.01,0,0.01-0.01,0.02-0.01c0.35-0.3,0.69-0.6,1.03-0.91
	c0.08-0.07,0.16-0.14,0.23-0.21c0.26-0.25,0.52-0.51,0.77-0.77c0.14-0.15,0.29-0.3,0.43-0.45c0.18-0.19,0.35-0.38,0.52-0.58
	c0.21-0.23,0.41-0.47,0.61-0.71c0.1-0.12,0.2-0.25,0.3-0.37c0.26-0.32,0.51-0.65,0.75-0.98c0.04-0.06,0.08-0.12,0.12-0.18
	c0.29-0.4,0.57-0.81,0.83-1.23c0,0,0.01-0.01,0.01-0.01C86.86,36.47,87.55,35.22,88.15,33.89z M87.09,29.45l-0.26,0.74
	c-1.8,5.16-4.78,9.39-8.88,12.57l-0.12-0.06l-0.58,0.58c-0.37,0.27-0.75,0.53-1.14,0.78c-0.09,0.06-0.18,0.12-0.26,0.17
	c-0.31,0.2-0.62,0.38-0.94,0.57c-0.19,0.11-0.39,0.23-0.59,0.34c-0.18,0.1-0.36,0.19-0.54,0.29c-5.34,2.78-11.85,4.11-18.6,3.77
	c-0.13-0.01-0.26-0.01-0.38-0.02c-0.4-0.02-0.81-0.05-1.21-0.09c-0.1-0.01-0.2-0.02-0.31-0.03c0.1-0.08,0.19-0.16,0.28-0.24
	c0.28-0.23,0.55-0.47,0.83-0.71c0.18-0.16,0.36-0.32,0.53-0.48c0.31-0.28,0.62-0.56,0.91-0.85c0.08-0.08,0.16-0.16,0.24-0.23
	c4.46-4.34,7.76-9.4,9.61-14.74c0.03-0.09,0.06-0.18,0.1-0.28c0.14-0.41,0.27-0.82,0.39-1.23c0.04-0.13,0.07-0.26,0.11-0.39
	c0.11-0.39,0.22-0.79,0.31-1.19c0.03-0.13,0.06-0.26,0.08-0.39c0.09-0.39,0.18-0.79,0.25-1.19c0.15-0.05,0.31-0.1,0.46-0.14
	c0.24-0.07,0.48-0.14,0.72-0.2c0.28-0.08,0.56-0.15,0.84-0.22c0.25-0.06,0.5-0.12,0.75-0.18c0.27-0.06,0.53-0.12,0.8-0.18
	c0.27-0.06,0.54-0.12,0.81-0.17c0.24-0.05,0.47-0.09,0.71-0.13c0.31-0.06,0.61-0.11,0.92-0.17c0.17-0.03,0.33-0.05,0.5-0.08
	c1.92-0.32,3.82-0.56,5.62-0.79c1.81-0.23,3.52-0.45,5.1-0.71l1.42-0.22l-0.03-0.04c1.04-0.21,2.02-0.44,2.92-0.74
	C88.17,25.4,87.71,27.49,87.09,29.45z M65.5,11.57c5.74,2.32,10.88,5.89,15.08,10.49c-0.6,0.08-1.22,0.16-1.85,0.24
	c-1.54,0.2-3.15,0.4-4.79,0.66c-0.08,0.01-0.15,0.02-0.23,0.04c-0.45,0.07-0.89,0.14-1.34,0.22c-0.12,0.02-0.24,0.04-0.36,0.06
	c-0.44,0.08-0.87,0.16-1.31,0.25c-0.11,0.02-0.22,0.04-0.34,0.07c-0.54,0.11-1.09,0.23-1.63,0.36c-0.02,0-0.04,0.01-0.06,0.01
	c-0.46,0.11-0.91,0.23-1.36,0.35c0-0.04,0-0.08,0.01-0.12c0.03-0.37,0.05-0.73,0.06-1.1c0.01-0.2,0.02-0.39,0.02-0.59
	c0.01-0.28,0-0.56,0-0.84c0-0.29-0.01-0.58-0.02-0.87c-0.01-0.18-0.02-0.35-0.03-0.53c-0.02-0.4-0.05-0.79-0.09-1.19
	c-0.01-0.07-0.02-0.15-0.02-0.22C66.98,16.41,66.41,13.97,65.5,11.57z M58.18,3.89c1.38,1.79,2.54,3.61,3.49,5.46l0.27,0.55
	c2.52,5.15,3.37,10.51,2.56,15.92c-0.01,0.09-0.03,0.18-0.04,0.28c-0.06,0.39-0.14,0.78-0.22,1.17c-0.04,0.18-0.07,0.35-0.11,0.53
	c-0.06,0.28-0.13,0.55-0.2,0.82c-0.08,0.3-0.15,0.59-0.24,0.89c-0.03,0.1-0.06,0.21-0.1,0.31c-1.79,5.81-5.48,11.42-10.55,16
	c-0.09,0.08-0.18,0.16-0.27,0.24c-0.31,0.27-0.62,0.54-0.94,0.81c-0.08,0.06-0.16,0.13-0.23,0.19c0.01-0.12,0.02-0.24,0.03-0.35
	c0.03-0.37,0.06-0.75,0.09-1.12c0.01-0.22,0.02-0.44,0.04-0.65c0.02-0.44,0.04-0.88,0.05-1.31c0-0.06,0-0.13,0-0.19
	c0.11-6.9-1.41-13.41-4.41-18.86c0-0.01-0.01-0.02-0.02-0.03c-0.5-0.9-1.03-1.78-1.62-2.63c0.07-0.14,0.15-0.28,0.22-0.42
	c0.12-0.22,0.24-0.43,0.36-0.65c0.14-0.25,0.29-0.5,0.44-0.75c0.13-0.22,0.27-0.44,0.4-0.66c0.14-0.23,0.29-0.46,0.44-0.69
	c0.15-0.23,0.3-0.47,0.46-0.7c0.13-0.2,0.27-0.4,0.4-0.59c0.18-0.26,0.35-0.52,0.53-0.77c0.1-0.14,0.2-0.28,0.3-0.42
	c0.22-0.31,0.45-0.62,0.67-0.93c0,0,0.01-0.01,0.01-0.01c0.92-1.24,1.84-2.44,2.73-3.58c1.11-1.44,2.17-2.8,3.1-4.11l0.89-1.22
	l-0.05-0.01C57.25,5.55,57.76,4.71,58.18,3.89z M33.74,11.91c5.7-2.45,11.78-3.57,18.11-3.3c-0.38,0.5-0.77,1-1.18,1.52
	c-0.24,0.32-0.5,0.65-0.75,0.97c-0.12,0.16-0.25,0.32-0.37,0.48c-0.25,0.32-0.49,0.64-0.74,0.97c-0.45,0.59-0.9,1.2-1.35,1.82
	c-0.13,0.18-0.25,0.36-0.38,0.53c-0.49,0.69-0.97,1.38-1.44,2.09c-0.06,0.09-0.12,0.19-0.18,0.28c-0.45,0.7-0.89,1.41-1.3,2.13
	c-0.05,0.08-0.1,0.15-0.14,0.23c-0.01-0.01-0.01-0.01-0.02-0.02c-0.3-0.35-0.6-0.69-0.91-1.02c-0.07-0.08-0.15-0.16-0.22-0.24
	c-0.25-0.26-0.5-0.51-0.76-0.76c-0.15-0.15-0.31-0.3-0.47-0.45c-0.18-0.17-0.37-0.33-0.55-0.49c-0.25-0.22-0.5-0.44-0.75-0.65
	c-0.1-0.09-0.21-0.17-0.31-0.25c-0.34-0.27-0.69-0.54-1.05-0.8c-0.03-0.02-0.05-0.04-0.08-0.06C37.31,13.75,35.59,12.75,33.74,11.91
	z M29.4,13.02l0.65,0.22c5.44,1.88,9.85,5.08,13.1,9.51c0.02,0.02,0.04,0.05,0.05,0.07c0.28,0.38,0.55,0.78,0.81,1.18
	c0.05,0.08,0.11,0.16,0.16,0.25c0.2,0.32,0.39,0.64,0.58,0.96c0.11,0.19,0.22,0.37,0.32,0.56c0.1,0.19,0.2,0.38,0.3,0.57
	c2.77,5.32,4.09,11.81,3.76,18.53c-0.01,0.16-0.02,0.32-0.03,0.48c-0.02,0.37-0.05,0.75-0.08,1.12c-0.01,0.11-0.02,0.23-0.03,0.34
	c-0.07-0.09-0.15-0.17-0.22-0.26c-0.25-0.29-0.49-0.58-0.74-0.87c-0.14-0.16-0.28-0.32-0.42-0.47c-0.3-0.33-0.6-0.66-0.9-0.98
	c-0.04-0.04-0.08-0.08-0.12-0.12c-4.8-4.96-10.48-8.5-16.46-10.22c-0.01,0-0.03-0.01-0.04-0.01c-0.99-0.28-1.99-0.53-2.99-0.71
	c-0.05-0.15-0.09-0.3-0.14-0.44c-0.07-0.25-0.14-0.49-0.21-0.74c-0.07-0.27-0.14-0.55-0.21-0.82c-0.06-0.25-0.13-0.51-0.18-0.76
	c-0.06-0.27-0.12-0.53-0.18-0.8c-0.06-0.27-0.12-0.54-0.17-0.81c-0.05-0.24-0.09-0.48-0.14-0.73c-0.06-0.3-0.11-0.6-0.16-0.89
	c-0.03-0.19-0.06-0.37-0.09-0.56c-0.06-0.36-0.12-0.71-0.17-1.07c-0.01-0.05-0.01-0.1-0.02-0.15c-0.22-1.49-0.41-2.95-0.59-4.35
	c-0.23-1.8-0.45-3.51-0.71-5.09l-0.23-1.47l-0.04,0.03c-0.21-1.02-0.44-1.99-0.73-2.88C25.35,11.94,27.44,12.4,29.4,13.02z
	 M11.61,34.57C13.9,28.85,17.44,23.71,22,19.51c0.08,0.61,0.16,1.23,0.24,1.87c0.19,1.52,0.4,3.13,0.65,4.75
	c0.01,0.1,0.03,0.19,0.05,0.29c0.07,0.43,0.14,0.86,0.21,1.29c0.02,0.13,0.04,0.26,0.07,0.39c0.08,0.44,0.16,0.87,0.25,1.31
	c0.02,0.11,0.04,0.22,0.06,0.33c0.21,1.02,0.45,2.05,0.73,3.06c-0.01,0-0.02,0-0.03,0c-0.44-0.04-0.89-0.06-1.33-0.08
	c-0.12,0-0.24-0.01-0.36-0.01c-0.35-0.01-0.69-0.01-1.04,0c-0.23,0-0.45,0-0.68,0.01c-0.24,0.01-0.48,0.02-0.72,0.04
	c-0.33,0.02-0.67,0.04-1,0.08c-0.14,0.01-0.27,0.03-0.41,0.05c-0.43,0.05-0.86,0.1-1.29,0.17c-0.05,0.01-0.1,0.02-0.15,0.03
	C15.35,33.39,13.47,33.88,11.61,34.57z M9.26,38.45l0.69-0.33c5.15-2.49,10.5-3.33,15.9-2.5c0.03,0,0.06,0.01,0.09,0.01
	c0.47,0.07,0.94,0.16,1.41,0.26c0.1,0.02,0.19,0.04,0.29,0.06c0.37,0.08,0.73,0.17,1.09,0.27c0.21,0.06,0.42,0.11,0.62,0.17
	c0.21,0.06,0.41,0.13,0.62,0.19c5.19,1.64,10.22,4.8,14.49,9.1c0.6,0.92,1.27,1.85,2.01,2.78c-0.31-0.03-0.61-0.05-0.92-0.07
	c-0.22-0.01-0.45-0.03-0.67-0.04c-0.43-0.02-0.87-0.04-1.3-0.05c-0.07,0-0.14,0-0.21,0c-6.89-0.11-13.39,1.41-18.83,4.4
	c-0.02,0.01-0.05,0.03-0.07,0.04c-0.89,0.5-1.76,1.02-2.6,1.6c-0.14-0.07-0.28-0.15-0.42-0.22c-0.22-0.12-0.44-0.24-0.67-0.37
	c-0.24-0.14-0.48-0.28-0.72-0.42c-0.23-0.14-0.46-0.28-0.69-0.42c-0.22-0.14-0.43-0.28-0.65-0.42c-0.25-0.16-0.49-0.32-0.74-0.48
	c-0.18-0.12-0.36-0.25-0.55-0.37c-0.27-0.19-0.55-0.38-0.82-0.57c-0.12-0.08-0.23-0.16-0.34-0.25c-1.6-1.15-3.14-2.33-4.58-3.45
	C10.3,46.3,9,45.29,7.73,44.39l-1.26-0.92l0,0.05c-0.9-0.6-1.78-1.14-2.64-1.58C5.61,40.55,7.42,39.4,9.26,38.45z M11.96,66.14
	c-2.19-5.12-3.3-10.56-3.3-16.2c0-0.52,0.01-1.05,0.03-1.58c0.46,0.35,0.92,0.71,1.39,1.07c0.36,0.28,0.75,0.58,1.12,0.86
	c0.08,0.06,0.17,0.13,0.25,0.19c0.35,0.27,0.7,0.54,1.07,0.81c0.59,0.44,1.19,0.89,1.79,1.33c0.18,0.13,0.37,0.26,0.55,0.39
	c0.68,0.49,1.37,0.97,2.08,1.43c0.09,0.06,0.19,0.12,0.28,0.18c0.7,0.45,1.41,0.89,2.13,1.3c0.08,0.04,0.15,0.09,0.22,0.14
	c-0.01,0.01-0.01,0.01-0.02,0.02c-0.34,0.29-0.68,0.59-1,0.9c-0.08,0.07-0.16,0.14-0.23,0.22c-0.27,0.25-0.52,0.51-0.78,0.78
	c-0.14,0.14-0.27,0.28-0.41,0.42c-0.19,0.2-0.38,0.41-0.56,0.62c-0.19,0.21-0.38,0.43-0.56,0.65c-0.13,0.15-0.25,0.31-0.37,0.46
	c-0.23,0.29-0.45,0.58-0.67,0.87c-0.08,0.1-0.15,0.21-0.23,0.32c-0.25,0.35-0.49,0.71-0.73,1.07c-0.04,0.07-0.09,0.14-0.13,0.2
	c-0.25,0.4-0.5,0.81-0.74,1.22c-0.03,0.05-0.05,0.09-0.08,0.14c-0.24,0.43-0.48,0.87-0.7,1.32c-0.02,0.04-0.04,0.08-0.06,0.12
	C12.2,65.66,12.08,65.9,11.96,66.14z M12.98,70.65l0.29-0.83c1.89-5.35,5.07-9.69,9.45-12.89c0.86-0.63,1.76-1.21,2.7-1.74
	c0.15-0.08,0.3-0.16,0.44-0.24c0.25-0.14,0.51-0.27,0.76-0.4c0.32-0.16,0.65-0.32,0.98-0.47c0.05-0.02,0.1-0.04,0.15-0.07
	c4.47-2.02,9.65-3.09,15.05-3.09c0.62,0,1.24,0.02,1.86,0.04c0.11,0.01,0.22,0.01,0.33,0.02c0.49,0.03,0.97,0.06,1.46,0.11
	c0.1,0.01,0.19,0.02,0.29,0.03c-0.09,0.07-0.17,0.15-0.26,0.22c-0.29,0.25-0.58,0.49-0.87,0.74c-0.16,0.14-0.32,0.28-0.47,0.42
	c-0.33,0.3-0.66,0.6-0.97,0.9c-0.04,0.04-0.09,0.08-0.13,0.13c-4.96,4.8-8.49,10.48-10.22,16.45c0,0.02-0.01,0.03-0.01,0.05
	c-0.28,0.99-0.53,1.98-0.71,2.99c-0.15,0.05-0.3,0.09-0.46,0.14c-0.24,0.07-0.48,0.14-0.72,0.2c-0.28,0.08-0.56,0.15-0.84,0.22
	c-0.25,0.06-0.5,0.12-0.75,0.18c-0.27,0.06-0.54,0.12-0.81,0.18c-0.27,0.06-0.53,0.11-0.8,0.17c-0.24,0.05-0.49,0.09-0.73,0.14
	c-0.3,0.05-0.59,0.11-0.89,0.16c-0.19,0.03-0.37,0.06-0.56,0.09c-0.36,0.06-0.72,0.12-1.08,0.17c-0.04,0.01-0.07,0.01-0.11,0.02
	c-1.5,0.23-2.97,0.41-4.38,0.59c-1.62,0.21-3.17,0.4-4.61,0.64l-1.72,0.26l0.03,0.03c-1.11,0.22-2.15,0.47-3.1,0.77
	C11.88,74.74,12.35,72.63,12.98,70.65z M34.43,88.25c-5.59-2.27-10.61-5.74-14.73-10.18c0.53-0.07,1.07-0.14,1.62-0.21
	c1.05-0.13,2.13-0.27,3.23-0.43c0,0,0.01,0,0.01,0c0.49-0.07,0.99-0.14,1.49-0.22c0.11-0.02,0.21-0.03,0.32-0.05
	c0.42-0.07,0.84-0.14,1.27-0.21c0.14-0.02,0.27-0.05,0.41-0.07c0.43-0.08,0.86-0.16,1.29-0.25c0.12-0.02,0.23-0.04,0.35-0.07
	c0.54-0.11,1.09-0.23,1.63-0.36c0.01,0,0.03-0.01,0.04-0.01c0.46-0.11,0.92-0.23,1.38-0.35c0,0.01,0,0.01,0,0.02
	c-0.04,0.45-0.06,0.9-0.08,1.35c0,0.1-0.01,0.2-0.01,0.3c-0.01,0.37-0.01,0.75,0,1.12c0,0.18,0,0.37,0.01,0.55
	c0.01,0.29,0.03,0.59,0.05,0.88c0.02,0.27,0.04,0.54,0.06,0.8c0.02,0.22,0.04,0.43,0.07,0.65c0.04,0.34,0.08,0.68,0.14,1.03
	c0.02,0.15,0.05,0.3,0.07,0.45c0.07,0.4,0.14,0.8,0.23,1.2c0.02,0.11,0.05,0.21,0.07,0.32c0.1,0.43,0.2,0.87,0.32,1.3
	c0.02,0.08,0.04,0.16,0.07,0.24c0.13,0.45,0.26,0.89,0.41,1.34c0.03,0.08,0.05,0.15,0.08,0.23C34.29,87.84,34.36,88.05,34.43,88.25z
	 M41.87,96.28c-1.4-1.81-2.57-3.66-3.52-5.53l-0.39-0.81c-2.41-5.09-3.21-10.36-2.4-15.68c0-0.03,0.01-0.06,0.01-0.09
	c0.07-0.47,0.16-0.93,0.26-1.4c0.02-0.1,0.04-0.2,0.06-0.3c0.08-0.36,0.17-0.72,0.27-1.08c0.06-0.21,0.11-0.43,0.17-0.64
	c0.06-0.2,0.12-0.4,0.18-0.59c1.8-5.73,5.46-11.26,10.46-15.79c0.11-0.1,0.23-0.2,0.34-0.3c0.29-0.25,0.58-0.5,0.87-0.75
	c0.09-0.07,0.17-0.14,0.26-0.21c-0.01,0.12-0.02,0.23-0.03,0.34c-0.03,0.38-0.06,0.76-0.09,1.13c-0.01,0.21-0.02,0.43-0.03,0.64
	c-0.02,0.44-0.04,0.88-0.05,1.32c0,0.06,0,0.12,0,0.18c-0.11,6.9,1.41,13.42,4.41,18.87c0,0.01,0.01,0.01,0.01,0.02
	c0.5,0.91,1.04,1.79,1.62,2.63c-0.08,0.14-0.15,0.29-0.23,0.43c-0.12,0.21-0.23,0.43-0.36,0.64c-0.14,0.25-0.29,0.5-0.44,0.75
	c-0.13,0.22-0.27,0.44-0.4,0.66c-0.14,0.23-0.29,0.46-0.44,0.69c-0.15,0.23-0.3,0.47-0.46,0.7c-0.13,0.2-0.27,0.39-0.4,0.59
	c-0.18,0.26-0.36,0.52-0.54,0.78c-0.1,0.13-0.19,0.27-0.29,0.4c-1.14,1.59-2.31,3.1-3.42,4.54c-0.98,1.26-1.9,2.46-2.75,3.62
	l-1.06,1.44l0.04,0C42.9,94.44,42.33,95.37,41.87,96.28z M65.99,88.1c-5.05,2.13-10.41,3.2-15.96,3.2c-0.53,0-1.07-0.01-1.61-0.03
	c0.31-0.41,0.64-0.82,0.96-1.24c0.26-0.34,0.53-0.7,0.8-1.04c0.1-0.13,0.19-0.25,0.29-0.38c0.26-0.33,0.51-0.66,0.77-1.01
	c0.45-0.6,0.9-1.2,1.35-1.82c0.13-0.17,0.25-0.35,0.37-0.52c0.49-0.69,0.98-1.39,1.45-2.11c0.06-0.08,0.11-0.17,0.16-0.26
	c0.46-0.7,0.9-1.42,1.32-2.15c0.04-0.07,0.09-0.14,0.13-0.22c0,0,0.01,0.01,0.01,0.01c0.3,0.35,0.61,0.7,0.92,1.03
	c0.06,0.07,0.12,0.13,0.18,0.2c0.26,0.28,0.54,0.55,0.81,0.81c0.13,0.12,0.25,0.25,0.38,0.37c0.22,0.21,0.44,0.4,0.67,0.6
	c0.2,0.17,0.39,0.34,0.6,0.51c0.17,0.14,0.35,0.28,0.52,0.42c0.27,0.21,0.53,0.42,0.81,0.62c0.13,0.09,0.26,0.19,0.39,0.28
	c0.33,0.23,0.66,0.46,0.99,0.68c0.09,0.06,0.19,0.12,0.28,0.18c0.37,0.24,0.75,0.47,1.14,0.69c0.07,0.04,0.15,0.09,0.23,0.13
	c0.4,0.23,0.81,0.44,1.23,0.65c0.07,0.04,0.15,0.07,0.22,0.11C65.6,87.91,65.79,88.01,65.99,88.1z M70.55,87.11l-0.86-0.31
	c-5.31-1.89-9.61-5.06-12.79-9.4c-0.01-0.02-0.03-0.03-0.04-0.05c-0.28-0.39-0.56-0.79-0.82-1.2c-0.05-0.08-0.1-0.15-0.15-0.23
	c-0.2-0.32-0.4-0.65-0.59-0.98c-0.11-0.18-0.21-0.37-0.32-0.55c-0.11-0.19-0.2-0.38-0.3-0.58c-2.77-5.32-4.09-11.8-3.76-18.53
	c0.01-0.16,0.02-0.32,0.03-0.48c0.02-0.37,0.05-0.75,0.08-1.12c0.01-0.11,0.02-0.23,0.03-0.34c0.07,0.09,0.14,0.17,0.22,0.25
	c0.25,0.3,0.5,0.59,0.76,0.88c0.14,0.15,0.27,0.31,0.41,0.46c0.3,0.33,0.6,0.66,0.91,0.99c0.04,0.04,0.07,0.07,0.11,0.11
	c4.8,4.97,10.49,8.5,16.47,10.23c0.02,0,0.03,0.01,0.05,0.01c0.99,0.28,1.98,0.53,2.99,0.71c0.05,0.15,0.1,0.31,0.14,0.46
	c0.07,0.24,0.14,0.47,0.2,0.71c0.08,0.28,0.15,0.56,0.22,0.84c0.06,0.25,0.12,0.5,0.18,0.75c0.06,0.27,0.12,0.54,0.18,0.81
	c0.06,0.27,0.11,0.53,0.17,0.8c0.05,0.24,0.09,0.48,0.14,0.72c0.06,0.3,0.11,0.6,0.16,0.9c0.03,0.18,0.06,0.35,0.09,0.53
	c0.06,0.37,0.12,0.74,0.18,1.11c0,0.02,0,0.03,0.01,0.05c0.23,1.52,0.42,3.01,0.6,4.43c0.2,1.59,0.4,3.1,0.62,4.53l0.27,1.77
	l0.03-0.03c0.22,1.12,0.47,2.17,0.78,3.14C74.66,88.23,72.54,87.75,70.55,87.11z M88.29,65.65c-2.3,5.61-5.8,10.63-10.28,14.75
	c-0.07-0.53-0.14-1.06-0.21-1.6c-0.19-1.52-0.4-3.12-0.65-4.75c-0.02-0.1-0.03-0.2-0.05-0.3c-0.07-0.43-0.14-0.86-0.21-1.29
	c-0.02-0.13-0.04-0.26-0.07-0.39c-0.08-0.44-0.16-0.87-0.25-1.31c-0.02-0.11-0.04-0.22-0.07-0.33c-0.11-0.55-0.23-1.09-0.36-1.64
	c0-0.01,0-0.02-0.01-0.03c-0.11-0.47-0.23-0.93-0.36-1.39c0.04,0,0.07,0,0.11,0.01c0.4,0.03,0.81,0.05,1.21,0.07
	c0.17,0.01,0.34,0.01,0.5,0.02c0.18,0,0.37,0.02,0.55,0.02c0.2,0,0.4-0.01,0.6-0.01c0.12,0,0.24-0.01,0.36-0.01
	c0.35-0.01,0.69-0.03,1.04-0.06c0.19-0.01,0.38-0.03,0.57-0.04c0.25-0.02,0.5-0.05,0.75-0.08c0.27-0.03,0.54-0.06,0.81-0.1
	c0.09-0.01,0.18-0.03,0.27-0.04c1.76-0.27,3.51-0.71,5.24-1.31c0.01,0,0.02-0.01,0.03-0.01C87.98,65.75,88.14,65.7,88.29,65.65z
	 M90.79,61.72l-0.8,0.38c-5.12,2.45-10.43,3.27-15.78,2.45c-0.03,0-0.06-0.01-0.1-0.01c-0.47-0.07-0.93-0.16-1.4-0.26
	c-0.1-0.02-0.19-0.04-0.29-0.06c-0.36-0.08-0.73-0.17-1.09-0.27c-0.21-0.06-0.42-0.11-0.62-0.17c-0.21-0.06-0.41-0.13-0.62-0.19
	c-5.29-1.67-10.41-4.91-14.72-9.33c0,0,0,0,0,0c-0.35-0.36-0.69-0.73-1.03-1.1c-0.11-0.13-0.23-0.25-0.34-0.38
	c-0.24-0.27-0.48-0.55-0.72-0.83c-0.08-0.09-0.15-0.18-0.22-0.27c0.06,0.01,0.12,0.01,0.17,0.01c0.42,0.04,0.84,0.07,1.25,0.1
	c0.16,0.01,0.31,0.02,0.47,0.03c0.49,0.03,0.98,0.04,1.46,0.06c0.07,0,0.14,0,0.21,0c0.26,0,0.52,0.02,0.77,0.02
	c7.79,0,15.05-2.1,20.79-6.06c0.14,0.07,0.28,0.15,0.41,0.22c0.22,0.12,0.45,0.25,0.67,0.37c0.24,0.14,0.48,0.28,0.72,0.43
	c0.23,0.14,0.46,0.27,0.68,0.42c0.22,0.14,0.44,0.28,0.67,0.43c0.24,0.16,0.48,0.31,0.72,0.47c0.19,0.13,0.38,0.26,0.57,0.39
	c0.26,0.18,0.53,0.36,0.79,0.54c0.14,0.1,0.27,0.19,0.4,0.29c0.31,0.23,0.63,0.45,0.94,0.68c0.01,0.01,0.02,0.01,0.03,0.02
	c1.24,0.91,2.43,1.84,3.57,2.72c1.36,1.05,2.65,2.05,3.89,2.94l1.29,0.94l0-0.05c0.91,0.61,1.8,1.16,2.68,1.61
	C94.44,59.62,92.63,60.77,90.79,61.72z"/>
</svg>
