<?xml version="1.0" encoding="utf-8"?>
<!-- Generator: Adobe Illustrator 24.0.0, SVG Export Plug-In . SVG Version: 6.00 Build 0)  -->
<svg version="1.0" id="Layer_1" xmlns="http://www.w3.org/2000/svg" xmlns:xlink="http://www.w3.org/1999/xlink" x="0px" y="0px"
	 viewBox="0 0 100 100" style="enable-background:new 0 0 100 100;" xml:space="preserve">
<g>
	<path d="M95.48,39.5h-1.08c-1.12-4.7-2.97-9.17-5.52-13.31l0.77-0.77c0.86-0.86,1.33-2,1.33-3.21c0-1.21-0.47-2.35-1.33-3.21
		l-8.54-8.55c-1.71-1.71-4.71-1.71-6.43,0l-0.77,0.77c-4.13-2.55-8.6-4.4-13.31-5.52V4.63c0-2.5-2.04-4.54-4.54-4.54H43.98
		c-2.5,0-4.54,2.04-4.54,4.54V5.7c-4.7,1.12-9.17,2.97-13.31,5.52l-0.77-0.77c-1.71-1.71-4.71-1.71-6.43,0L10.4,19
		c-0.86,0.86-1.33,2-1.33,3.21c0,1.21,0.47,2.35,1.33,3.21l0.76,0.76c-2.55,4.14-4.4,8.6-5.52,13.31H4.57
		c-2.5,0-4.54,2.04-4.54,4.54v12.09c0,2.51,2.04,4.54,4.54,4.54h1.08c1.12,4.71,2.97,9.18,5.52,13.31l-0.77,0.76
		c-0.86,0.86-1.33,2-1.33,3.21c0,1.21,0.47,2.35,1.33,3.21l8.54,8.54c0.81,0.81,1.99,1.28,3.21,1.28c0,0,0,0,0,0
		c1.23,0,2.4-0.47,3.21-1.28l0.77-0.77c4.14,2.55,8.6,4.4,13.31,5.52v1.08c0,2.5,2.04,4.54,4.54,4.54h12.09
		c2.5,0,4.54-2.04,4.54-4.54v-1.08c4.71-1.12,9.17-2.97,13.31-5.52l0.76,0.76c1.71,1.71,4.71,1.71,6.43,0l8.54-8.55
		c0.86-0.86,1.33-2,1.33-3.21c0-1.21-0.47-2.35-1.33-3.21l-0.76-0.76c2.55-4.13,4.4-8.6,5.52-13.31h1.08c2.5,0,4.54-2.04,4.54-4.54
		V44.04C100.03,41.54,97.99,39.5,95.48,39.5z M91.63,39.5H86c-1.8,0-3.3-1-3.99-2.66c-0.69-1.67-0.34-3.43,0.93-4.7l3.97-3.97
		C89.04,31.71,90.62,35.51,91.63,39.5z M71.95,13.19l-3.97,3.97c-1.28,1.28-3.04,1.63-4.71,0.94c-1.67-0.69-2.66-2.18-2.66-3.99
		V8.49C64.6,9.5,68.41,11.07,71.95,13.19z M39.44,8.48v5.63c0,1.81-1,3.3-2.66,3.99c-1.66,0.7-3.42,0.34-4.7-0.94l-3.97-3.97
		C31.65,11.07,35.45,9.49,39.44,8.48z M13.13,28.16l3.97,3.97c1.27,1.28,1.62,3.04,0.94,4.7c-0.69,1.67-2.18,2.66-3.99,2.66H8.42
		C9.43,35.51,11.01,31.71,13.13,28.16z M8.43,60.67h5.62c1.8,0,3.3,1,3.99,2.66c0.69,1.67,0.34,3.43-0.93,4.7l-3.98,3.97
		C11.02,68.47,9.44,64.66,8.43,60.67z M28.1,86.98l3.97-3.97c0.85-0.84,1.9-1.28,3-1.28c0.56,0,1.14,0.11,1.7,0.35
		c1.67,0.69,2.66,2.18,2.66,3.99v5.63C35.45,90.68,31.65,89.1,28.1,86.98z M60.61,91.68v-5.62c0-1.81,1-3.3,2.66-3.99
		c1.67-0.69,3.43-0.34,4.7,0.93l3.97,3.97C68.4,89.1,64.6,90.67,60.61,91.68z M86.92,72.01l-3.97-3.97
		c-1.28-1.28-1.62-3.04-0.94-4.7c0.69-1.67,2.18-2.66,3.99-2.66h5.62C90.61,64.66,89.03,68.47,86.92,72.01z M97.62,56.13
		c0,1.18-0.96,2.14-2.14,2.14H86c-2.77,0-5.15,1.59-6.21,4.15c-1.06,2.56-0.5,5.36,1.46,7.32l6.7,6.7c0.41,0.41,0.63,0.94,0.63,1.52
		c0,0.57-0.22,1.11-0.63,1.51l-8.54,8.54c-0.41,0.4-0.94,0.63-1.52,0.63c0,0,0,0,0,0c-0.57,0-1.11-0.22-1.51-0.63l-6.7-6.7
		c-1.96-1.96-4.76-2.51-7.32-1.46c-2.56,1.06-4.15,3.44-4.15,6.21v9.48c0,1.18-0.96,2.14-2.14,2.14H43.98
		c-1.18,0-2.14-0.96-2.14-2.14v-9.48c0-2.77-1.59-5.15-4.15-6.21c-2.53-1.05-5.39-0.48-7.32,1.45l-6.7,6.7
		c-0.4,0.4-0.94,0.63-1.51,0.63c0,0,0,0,0,0c-0.57,0-1.11-0.22-1.51-0.63l-8.54-8.54c-0.41-0.41-0.63-0.94-0.63-1.52
		c0-0.57,0.22-1.11,0.63-1.51l6.7-6.7c1.96-1.96,2.52-4.76,1.46-7.32c-1.06-2.56-3.44-4.15-6.21-4.15H4.57
		c-1.18,0-2.14-0.96-2.14-2.14V44.04c0-1.18,0.96-2.14,2.14-2.14h9.48c2.77,0,5.15-1.59,6.21-4.15c1.06-2.56,0.5-5.36-1.46-7.32
		l-6.7-6.7c-0.41-0.41-0.63-0.94-0.63-1.52c0-0.57,0.22-1.11,0.63-1.51l8.54-8.54c0.4-0.4,0.94-0.63,1.51-0.63c0,0,0,0,0,0
		c0.57,0,1.11,0.22,1.51,0.63l6.7,6.7c1.96,1.96,4.76,2.51,7.32,1.46c2.56-1.06,4.15-3.43,4.15-6.21V4.63
		c0-1.18,0.96-2.14,2.14-2.14h12.09c1.18,0,2.14,0.96,2.14,2.14v9.48c0,2.77,1.59,5.15,4.15,6.21c2.56,1.06,5.36,0.5,7.32-1.46
		l6.7-6.7c0.41-0.41,0.91-0.62,1.52-0.63c0.57,0,1.11,0.22,1.51,0.63l8.54,8.54c0.41,0.41,0.63,0.94,0.63,1.52
		c0,0.57-0.22,1.11-0.63,1.51l-6.7,6.7c-1.96,1.96-2.52,4.77-1.46,7.32c1.06,2.56,3.44,4.15,6.21,4.15h9.48c0,0,0,0,0,0
		c0.57,0,1.1,0.22,1.51,0.62c0.4,0.4,0.63,0.94,0.63,1.51V56.13z"/>
	<path d="M50.03,33.87c-8.94,0-16.22,7.27-16.22,16.22c0,8.94,7.27,16.22,16.22,16.22c8.94,0,16.22-7.27,16.22-16.22
		C66.24,41.14,58.97,33.87,50.03,33.87z M50.03,63.9c-7.62,0-13.81-6.2-13.81-13.81c0-7.62,6.2-13.81,13.81-13.81
		c7.62,0,13.81,6.2,13.81,13.81C63.84,57.7,57.64,63.9,50.03,63.9z"/>
</g>
</svg>
