<?xml version="1.0" encoding="utf-8"?>
<!-- Generator: Adobe Illustrator 24.0.0, SVG Export Plug-In . SVG Version: 6.00 Build 0)  -->
<svg version="1.0" id="Layer_1" xmlns="http://www.w3.org/2000/svg" xmlns:xlink="http://www.w3.org/1999/xlink" x="0px" y="0px"
	 viewBox="0 0 100 100" style="enable-background:new 0 0 100 100;" xml:space="preserve">
<g>
	<path d="M99.96,37.14c-0.16-0.5-0.59-0.86-1.1-0.93l-6.22-0.9c-6.6-15.82-21.64-26.8-38.7-28.24l-2.69-5.44
		c-0.23-0.47-0.71-0.76-1.23-0.76c-0.52,0-1,0.3-1.23,0.76l-2.68,5.44C29.06,8.5,14.01,19.48,7.42,35.3l-6.22,0.9
		c-0.52,0.07-0.94,0.44-1.1,0.93c-0.16,0.5-0.03,1.04,0.35,1.4l4.55,4.44c-0.74,3.31-1.13,6.69-1.13,10.06
		c0,13.4,5.79,26.04,15.89,34.82l-1.14,6.64c-0.09,0.51,0.12,1.03,0.54,1.34c0.24,0.17,0.52,0.26,0.8,0.26
		c0.22,0,0.44-0.05,0.64-0.16l5.98-3.14c7.09,4.19,15.17,6.4,23.44,6.4s16.35-2.21,23.44-6.4l5.98,3.14c0.46,0.24,1.02,0.2,1.44-0.1
		c0.42-0.31,0.63-0.82,0.54-1.34l-1.14-6.64c10.1-8.79,15.89-21.43,15.89-34.82c0-3.37-0.39-6.75-1.13-10.06l4.55-4.44
		C99.99,38.18,100.12,37.63,99.96,37.14z M55.36,9.95c14.81,1.83,27.81,11.32,34.08,24.89l-23.49-3.41L55.36,9.95z M10.6,34.84
		c6.28-13.56,19.27-23.05,34.08-24.89l-10.6,21.47L10.6,34.84z M6.6,53.04c0-2.61,0.24-5.22,0.71-7.8l16.93,16.5L20.3,84.69
		C11.57,76.49,6.6,65.08,6.6,53.04z M50.03,96.46c-7.21,0-14.27-1.78-20.57-5.18l20.57-10.81l20.57,10.81
		C64.29,94.68,57.23,96.46,50.03,96.46z M93.45,53.04c0,12.04-4.97,23.45-13.7,31.65l-3.94-22.95l16.93-16.5
		C93.21,47.82,93.45,50.43,93.45,53.04z M73.39,60.28c-0.32,0.31-0.47,0.77-0.39,1.21l4.47,26.08c0,0,0,0,0,0l0.8,4.65l-4.2-2.21
		c0,0,0,0,0,0l-23.4-12.3c-0.2-0.1-0.42-0.16-0.64-0.16c-0.22,0-0.44,0.05-0.64,0.16l-23.4,12.3c0,0,0,0,0,0l-4.2,2.21l5.27-30.74
		c0.08-0.44-0.07-0.9-0.39-1.21L7.44,41.55c0,0,0,0,0,0l-3.11-3.03l30.86-4.48c0.45-0.06,0.83-0.34,1.03-0.75l12-24.32c0,0,0,0,0,0
		l1.8-3.64l13.8,27.97c0.2,0.4,0.58,0.68,1.03,0.75l30.86,4.48L73.39,60.28z"/>
	<path d="M51.25,22.76C51.02,22.29,50.55,22,50.03,22c-0.52,0-1,0.3-1.23,0.76l-8.14,16.49l-18.2,2.64
		c-0.52,0.07-0.94,0.44-1.1,0.93c-0.16,0.5-0.03,1.04,0.35,1.4l13.17,12.84l-3.11,18.12c-0.09,0.51,0.12,1.03,0.54,1.34
		c0.42,0.31,0.98,0.35,1.44,0.1l16.28-8.56l16.28,8.56c0.2,0.11,0.42,0.16,0.64,0.16c0.28,0,0.57-0.09,0.8-0.26
		c0.42-0.31,0.63-0.82,0.54-1.34l-3.11-18.12l13.17-12.84c0.37-0.36,0.51-0.91,0.35-1.4c-0.16-0.5-0.59-0.86-1.1-0.93l-18.2-2.64
		L51.25,22.76z M62.75,55.61c-0.32,0.31-0.47,0.77-0.39,1.21l2.76,16.1l-14.46-7.6c-0.2-0.1-0.42-0.16-0.64-0.16
		c-0.22,0-0.44,0.05-0.64,0.16l-14.46,7.6l2.76-16.1c0.08-0.44-0.07-0.9-0.39-1.21L25.6,44.2l16.17-2.35
		c0.45-0.06,0.83-0.34,1.03-0.75l7.23-14.65l7.23,14.65c0.2,0.4,0.58,0.68,1.03,0.75l16.17,2.35L62.75,55.61z"/>
	<path d="M51.25,43.42c-0.23-0.47-0.71-0.76-1.23-0.76c-0.52,0-1,0.3-1.23,0.76l-2.31,4.69l-5.17,0.75
		c-0.52,0.07-0.94,0.44-1.1,0.93c-0.16,0.49-0.03,1.04,0.35,1.4l3.74,3.65l-0.88,5.15c-0.09,0.51,0.12,1.03,0.54,1.34
		c0.42,0.31,0.98,0.35,1.44,0.1L50.03,59l4.63,2.43c0.2,0.11,0.42,0.16,0.64,0.16c0.28,0,0.57-0.09,0.8-0.26
		c0.42-0.31,0.63-0.82,0.54-1.34l-0.88-5.15l3.74-3.65c0.37-0.36,0.51-0.91,0.35-1.4c-0.16-0.5-0.59-0.86-1.1-0.93l-5.17-0.75
		L51.25,43.42z M53.33,53.39c-0.32,0.31-0.47,0.77-0.39,1.21l0.54,3.13l-2.81-1.48c-0.2-0.1-0.42-0.16-0.64-0.16
		c-0.22,0-0.44,0.05-0.64,0.16l-2.81,1.48l0.54-3.13c0.08-0.44-0.07-0.9-0.39-1.21l-2.27-2.22l3.14-0.46
		c0.45-0.07,0.83-0.34,1.03-0.75l1.4-2.85l1.41,2.85c0.2,0.4,0.58,0.68,1.03,0.75l3.14,0.46L53.33,53.39z"/>
</g>
</svg>
