<?xml version="1.0" encoding="utf-8"?>
<!-- Generator: Adobe Illustrator 24.0.0, SVG Export Plug-In . SVG Version: 6.00 Build 0)  -->
<svg version="1.0" id="Layer_1" xmlns="http://www.w3.org/2000/svg" xmlns:xlink="http://www.w3.org/1999/xlink" x="0px" y="0px"
	 viewBox="0 0 100 100" style="enable-background:new 0 0 100 100;" xml:space="preserve">
<style type="text/css">
	.st0{fill:#020304;}
</style>
<g>
	<path class="st0" d="M50.03,0.09c-27.57,0-50,22.43-50,49.99c0,27.57,22.43,50,50,50c27.57,0,50-22.43,50-50
		C100.03,22.51,77.6,0.09,50.03,0.09z M50.03,92.71c-23.5,0-42.62-19.12-42.62-42.62c0-23.5,19.12-42.62,42.62-42.62
		c23.5,0,42.62,19.12,42.62,42.62C92.65,73.58,73.53,92.71,50.03,92.71z"/>
	<path class="st0" d="M50.03,13.26v36.83H13.2c0,20.34,16.49,36.83,36.83,36.83c20.34,0,36.83-16.49,36.83-36.83
		C86.86,29.75,70.37,13.26,50.03,13.26z"/>
</g>
</svg>
